<?xml version="1.0" encoding="UTF-8" standalone="no"?>
<!DOCTYPE svg PUBLIC "-//W3C//DTD SVG 1.1//EN" "http://www.w3.org/Graphics/SVG/1.1/DTD/svg11.dtd">
<svg version="1.1" xmlns="http://www.w3.org/2000/svg" xmlns:xlink="http://www.w3.org/1999/xlink" preserveAspectRatio="xMidYMid meet" viewBox="0 0 640 640" width="640" height="640"><defs><path d="M502.64 260.57L503.12 260.58L503.6 260.6L504.07 260.63L504.53 260.67L505 260.71L505.46 260.75L505.91 260.8L506.36 260.86L506.81 260.93L507.26 261L507.7 261.07L508.14 261.16L508.57 261.25L509 261.34L509.43 261.44L509.85 261.55L510.27 261.66L510.69 261.78L511.1 261.91L511.51 262.04L511.91 262.18L512.32 262.32L512.71 262.47L513.11 262.63L513.5 262.79L513.89 262.96L514.27 263.14L514.65 263.32L515.03 263.5L515.4 263.7L515.77 263.9L516.13 264.1L516.5 264.31L516.86 264.53L517.21 264.76L517.56 264.99L517.91 265.22L518.25 265.46L518.59 265.71L518.93 265.97L519.26 266.22L519.58 266.49L519.91 266.76L520.23 267.03L520.54 267.31L520.85 267.59L521.16 267.88L521.46 268.18L521.76 268.47L522.05 268.78L522.34 269.09L522.62 269.4L522.91 269.72L523.18 270.05L523.45 270.38L523.72 270.71L523.99 271.05L524.25 271.4L524.5 271.75L524.76 272.11L525 272.47L525.25 272.83L525.49 273.2L525.72 273.58L525.95 273.96L526.18 274.34L526.4 274.74L526.62 275.13L526.83 275.53L527.04 275.94L527.25 276.35L527.45 276.77L527.65 277.19L527.84 277.62L528.03 278.05L528.21 278.48L528.39 278.93L528.57 279.37L528.74 279.82L528.91 280.28L529.08 280.74L529.24 281.2L529.4 281.67L529.55 282.14L529.69 282.62L529.84 283.1L529.98 283.58L530.11 284.06L530.24 284.55L530.37 285.05L530.49 285.55L530.61 286.05L530.72 286.55L530.83 287.06L530.93 287.57L531.03 288.09L531.13 288.61L531.22 289.13L531.3 289.66L531.39 290.19L531.46 290.73L531.54 291.27L531.6 291.81L531.67 292.36L531.73 292.91L531.78 293.46L531.84 294.02L531.88 294.58L531.92 295.15L531.96 295.72L532 296.29L532.02 296.87L532.05 297.45L532.07 298.03L532.08 298.62L532.1 299.21L532.1 299.81L532.1 300.41L532.1 301.99L532.1 302.56L532.1 303.14L532.08 303.71L532.07 304.28L532.05 304.84L532.02 305.4L532 305.96L531.96 306.52L531.92 307.07L531.88 307.62L531.84 308.16L531.78 308.71L531.73 309.25L531.67 309.79L531.6 310.32L531.54 310.85L531.46 311.38L531.39 311.9L531.3 312.42L531.22 312.94L531.13 313.46L531.03 313.97L530.93 314.48L530.83 314.99L530.72 315.49L530.61 315.99L530.49 316.49L530.37 316.98L530.24 317.47L530.11 317.96L529.98 318.45L529.84 318.93L529.69 319.41L529.55 319.88L529.4 320.36L529.24 320.83L529.08 321.29L528.91 321.76L528.74 322.22L528.57 322.67L528.39 323.13L528.21 323.58L528.02 324.02L527.83 324.46L527.63 324.89L527.43 325.32L527.23 325.74L527.02 326.16L526.81 326.58L526.59 326.99L526.37 327.39L526.15 327.79L525.92 328.19L525.69 328.58L525.45 328.96L525.21 329.34L524.96 329.72L524.71 330.09L524.46 330.45L524.2 330.81L523.94 331.17L523.68 331.52L523.41 331.86L523.13 332.21L522.85 332.54L522.57 332.87L522.29 333.2L522 333.52L521.7 333.84L521.4 334.15L521.1 334.45L520.79 334.76L520.48 335.05L520.17 335.34L519.85 335.63L519.53 335.91L519.2 336.19L518.87 336.46L518.53 336.73L518.2 336.99L517.85 337.25L517.51 337.5L517.16 337.74L516.81 337.98L516.46 338.21L516.1 338.44L515.73 338.65L515.37 338.87L515 339.07L514.63 339.27L514.25 339.46L513.87 339.65L513.49 339.83L513.1 340L512.71 340.16L512.31 340.32L511.92 340.48L511.51 340.62L511.11 340.76L510.7 340.89L510.29 341.02L509.87 341.14L509.45 341.25L509.03 341.36L508.61 341.46L508.18 341.56L507.74 341.64L507.31 341.72L506.87 341.8L506.42 341.87L505.98 341.93L505.52 341.98L505.07 342.03L504.61 342.07L504.15 342.11L503.69 342.14L503.22 342.16L502.75 342.18L502.27 342.19L501.79 342.19L501.23 342.19L500.68 342.17L500.13 342.14L499.58 342.11L499.04 342.06L498.51 342.01L497.98 341.94L497.46 341.86L496.94 341.77L496.42 341.68L495.92 341.57L495.41 341.45L494.92 341.32L494.42 341.18L493.94 341.03L493.45 340.87L492.98 340.7L492.5 340.52L492.04 340.33L491.57 340.13L491.12 339.92L490.67 339.7L490.22 339.47L489.78 339.22L489.34 338.97L488.91 338.71L488.49 338.44L488.07 338.15L487.65 337.86L487.24 337.56L486.84 337.24L486.44 336.92L486.04 336.58L485.65 336.24L485.27 335.88L484.89 335.52L484.51 335.14L484.14 334.75L483.78 334.36L483.42 333.95L483.42 371L460.93 371L460.93 262.02L481.86 262.02L482.61 269.55L482.98 269.11L483.35 268.68L483.73 268.26L484.11 267.85L484.5 267.45L484.9 267.06L485.3 266.68L485.71 266.32L486.12 265.96L486.54 265.62L486.96 265.29L487.39 264.97L487.83 264.66L488.27 264.36L488.71 264.08L489.16 263.8L489.62 263.54L490.08 263.28L490.55 263.04L491.02 262.81L491.5 262.59L491.99 262.38L492.48 262.18L492.98 262L493.48 261.82L493.98 261.66L494.5 261.51L495.02 261.37L495.54 261.24L496.07 261.12L496.61 261.01L497.15 260.92L497.69 260.83L498.25 260.76L498.8 260.7L499.37 260.65L499.94 260.61L500.51 260.58L501.09 260.56L501.68 260.56L502.16 260.56L502.64 260.57ZM349.32 260.57L349.8 260.58L350.27 260.59L350.74 260.62L351.21 260.64L351.67 260.67L352.14 260.71L352.59 260.75L353.05 260.79L353.5 260.84L353.95 260.9L354.4 260.96L354.85 261.02L355.29 261.09L355.73 261.16L356.16 261.24L356.6 261.33L357.03 261.41L357.45 261.51L357.88 261.6L358.3 261.71L358.72 261.81L359.14 261.93L359.55 262.04L359.96 262.16L360.37 262.29L360.77 262.42L361.17 262.55L361.57 262.69L361.97 262.84L362.36 262.99L362.75 263.14L363.14 263.3L363.52 263.47L363.9 263.63L364.28 263.81L364.66 263.98L365.03 264.17L365.4 264.35L365.77 264.54L366.13 264.74L366.49 264.93L366.85 265.14L367.2 265.34L367.55 265.55L367.89 265.77L368.23 265.99L368.57 266.21L368.9 266.44L369.23 266.67L369.56 266.9L369.88 267.14L370.19 267.38L370.5 267.63L370.81 267.88L371.12 268.14L371.42 268.4L371.71 268.66L372 268.93L372.29 269.2L372.58 269.48L372.85 269.76L373.13 270.05L373.4 270.34L373.67 270.63L373.93 270.93L374.19 271.23L374.45 271.53L374.7 271.84L374.95 272.16L375.19 272.47L375.43 272.8L375.66 273.12L375.9 273.45L376.12 273.79L376.35 274.12L376.56 274.47L376.78 274.81L376.99 275.16L377.2 275.52L377.4 275.88L377.59 276.24L377.78 276.61L377.97 276.98L378.15 277.35L378.32 277.72L378.49 278.1L378.66 278.48L378.82 278.87L378.97 279.26L379.12 279.65L379.26 280.04L379.4 280.44L379.53 280.84L379.66 281.25L379.78 281.65L379.9 282.07L380.01 282.48L380.12 282.9L380.22 283.32L380.32 283.74L380.41 284.17L380.49 284.6L380.58 285.04L380.65 285.47L380.72 285.91L380.79 286.36L380.85 286.8L380.9 287.25L380.95 287.71L381 288.17L381.03 288.63L381.07 289.09L381.1 289.55L381.12 290.02L381.14 290.5L381.15 290.97L381.16 291.45L381.16 291.94L360.01 291.94L360 291.65L359.99 291.37L359.98 291.09L359.96 290.81L359.94 290.54L359.92 290.27L359.89 290L359.86 289.73L359.82 289.47L359.78 289.21L359.74 288.95L359.69 288.69L359.64 288.44L359.58 288.19L359.52 287.94L359.46 287.7L359.39 287.45L359.32 287.21L359.24 286.98L359.16 286.74L359.08 286.51L358.99 286.28L358.9 286.05L358.81 285.83L358.71 285.6L358.61 285.39L358.5 285.17L358.39 284.95L358.27 284.74L358.16 284.53L358.03 284.33L357.91 284.12L357.78 283.92L357.65 283.72L357.51 283.53L357.37 283.33L357.22 283.14L357.07 282.95L356.92 282.77L356.76 282.59L356.6 282.4L356.44 282.23L356.28 282.05L356.11 281.89L355.94 281.72L355.77 281.56L355.59 281.41L355.41 281.26L355.22 281.12L355.03 280.98L354.84 280.84L354.65 280.71L354.45 280.58L354.25 280.46L354.05 280.34L353.84 280.23L353.63 280.12L353.42 280.02L353.2 279.92L352.98 279.82L352.76 279.74L352.53 279.65L352.3 279.57L352.07 279.49L351.83 279.42L351.59 279.36L351.35 279.29L351.1 279.24L350.85 279.18L350.6 279.13L350.35 279.09L350.09 279.05L349.82 279.02L349.56 278.99L349.29 278.96L349.02 278.94L348.74 278.93L348.46 278.91L348.18 278.91L347.9 278.9L347.52 278.91L347.14 278.92L346.78 278.94L346.41 278.96L346.06 278.99L345.71 279.03L345.37 279.08L345.03 279.14L344.7 279.2L344.37 279.27L344.06 279.34L343.74 279.43L343.44 279.52L343.14 279.61L342.84 279.72L342.55 279.83L342.27 279.95L342 280.08L341.73 280.21L341.46 280.35L341.2 280.5L340.95 280.65L340.71 280.82L340.47 280.99L340.23 281.16L340.01 281.35L339.79 281.54L339.57 281.74L339.36 281.95L339.16 282.16L338.96 282.38L338.77 282.61L338.59 282.84L338.41 283.08L338.23 283.33L338.07 283.59L337.91 283.85L337.75 284.13L337.61 284.4L337.46 284.69L337.33 284.98L337.19 285.28L337.06 285.58L336.93 285.89L336.81 286.2L336.69 286.52L336.57 286.85L336.46 287.18L336.35 287.51L336.25 287.85L336.14 288.2L336.04 288.55L335.95 288.9L335.86 289.26L335.77 289.63L335.68 290L335.6 290.38L335.52 290.76L335.45 291.15L335.38 291.55L335.31 291.94L335.24 292.35L335.18 292.76L335.13 293.17L335.07 293.59L335.02 294.02L334.98 294.45L334.93 294.88L334.89 295.32L334.86 295.77L334.82 296.22L334.79 296.68L334.77 297.14L334.74 297.61L334.72 298.08L334.71 298.56L334.7 299.04L334.69 299.53L334.68 300.03L334.68 300.53L334.68 302.34L334.68 302.85L334.69 303.35L334.7 303.85L334.71 304.34L334.72 304.82L334.74 305.3L334.77 305.78L334.79 306.25L334.82 306.71L334.86 307.17L334.89 307.62L334.93 308.07L334.98 308.51L335.02 308.94L335.07 309.37L335.13 309.79L335.18 310.21L335.24 310.62L335.31 311.03L335.38 311.43L335.45 311.82L335.52 312.21L335.6 312.6L335.68 312.97L335.77 313.35L335.86 313.71L335.95 314.07L336.04 314.43L336.14 314.77L336.25 315.12L336.35 315.46L336.46 315.79L336.57 316.11L336.69 316.43L336.81 316.75L336.93 317.06L337.06 317.36L337.19 317.66L337.33 317.95L337.46 318.23L337.61 318.51L337.75 318.78L337.91 319.04L338.07 319.3L338.24 319.55L338.41 319.79L338.59 320.02L338.77 320.25L338.97 320.47L339.16 320.69L339.37 320.89L339.58 321.09L339.8 321.29L340.02 321.47L340.25 321.65L340.48 321.82L340.73 321.99L340.97 322.14L341.23 322.3L341.49 322.44L341.75 322.58L342.03 322.71L342.31 322.83L342.59 322.94L342.88 323.05L343.18 323.15L343.49 323.25L343.8 323.34L344.11 323.42L344.44 323.49L344.76 323.56L345.1 323.62L345.44 323.67L345.79 323.72L346.14 323.75L346.51 323.79L346.87 323.81L347.25 323.83L347.63 323.84L348.01 323.84L348.28 323.84L348.55 323.83L348.81 323.83L349.08 323.81L349.34 323.8L349.59 323.78L349.85 323.75L350.1 323.73L350.35 323.7L350.59 323.66L350.84 323.62L351.08 323.58L351.31 323.54L351.55 323.49L351.78 323.43L352.01 323.38L352.24 323.32L352.46 323.25L352.68 323.19L352.9 323.12L353.12 323.04L353.33 322.96L353.54 322.88L353.75 322.79L353.95 322.7L354.16 322.61L354.36 322.52L354.55 322.41L354.75 322.31L354.94 322.2L355.13 322.09L355.31 321.98L355.5 321.86L355.68 321.73L355.86 321.61L356.03 321.48L356.2 321.34L356.37 321.21L356.54 321.07L356.7 320.92L356.86 320.77L357.02 320.62L357.17 320.46L357.32 320.3L357.46 320.14L357.6 319.98L357.74 319.82L357.87 319.65L358 319.48L358.13 319.31L358.25 319.13L358.36 318.95L358.47 318.77L358.58 318.59L358.69 318.41L358.79 318.22L358.88 318.03L358.98 317.84L359.07 317.64L359.15 317.45L359.23 317.25L359.31 317.04L359.38 316.84L359.45 316.63L359.51 316.42L359.57 316.21L359.63 315.99L359.68 315.78L359.73 315.56L359.78 315.33L359.82 315.11L359.86 314.88L359.89 314.65L359.92 314.42L359.94 314.18L359.96 313.95L359.98 313.71L359.99 313.47L360 313.22L360.01 312.97L381.16 312.97L381.16 313.4L381.15 313.82L381.14 314.23L381.12 314.65L381.09 315.06L381.06 315.48L381.03 315.88L380.99 316.29L380.94 316.7L380.89 317.1L380.83 317.5L380.77 317.9L380.7 318.29L380.63 318.68L380.55 319.08L380.47 319.46L380.38 319.85L380.28 320.23L380.18 320.62L380.08 321L379.96 321.37L379.85 321.75L379.73 322.12L379.6 322.49L379.46 322.86L379.33 323.22L379.18 323.59L379.03 323.95L378.88 324.31L378.72 324.66L378.55 325.02L378.38 325.37L378.2 325.72L378.02 326.07L377.83 326.41L377.64 326.76L377.44 327.1L377.24 327.44L377.03 327.77L376.82 328.11L376.6 328.44L376.37 328.77L376.15 329.09L375.92 329.41L375.68 329.73L375.44 330.04L375.2 330.35L374.95 330.66L374.7 330.96L374.45 331.26L374.19 331.55L373.93 331.84L373.66 332.13L373.4 332.42L373.12 332.7L372.85 332.97L372.56 333.25L372.28 333.51L371.99 333.78L371.7 334.04L371.4 334.3L371.1 334.56L370.8 334.81L370.49 335.05L370.18 335.3L369.86 335.54L369.55 335.77L369.22 336.01L368.9 336.24L368.57 336.46L368.23 336.68L367.89 336.9L367.55 337.11L367.21 337.32L366.86 337.53L366.5 337.73L366.15 337.93L365.78 338.13L365.42 338.32L365.05 338.51L364.68 338.69L364.3 338.87L363.93 339.04L363.55 339.21L363.17 339.37L362.78 339.53L362.4 339.69L362.01 339.83L361.62 339.98L361.23 340.12L360.83 340.26L360.44 340.39L360.04 340.51L359.64 340.64L359.24 340.75L358.83 340.87L358.43 340.97L358.02 341.08L357.61 341.18L357.19 341.27L356.78 341.36L356.36 341.45L355.94 341.53L355.52 341.6L355.09 341.67L354.67 341.74L354.24 341.8L353.81 341.86L353.38 341.91L352.94 341.96L352.5 342L352.07 342.04L351.62 342.08L351.18 342.11L350.74 342.13L350.29 342.15L349.84 342.17L349.39 342.18L348.93 342.19L348.47 342.19L347.89 342.19L347.31 342.18L346.73 342.16L346.15 342.14L345.59 342.11L345.02 342.08L344.46 342.03L343.91 341.99L343.35 341.93L342.81 341.87L342.27 341.8L341.73 341.73L341.19 341.65L340.67 341.56L340.14 341.47L339.62 341.37L339.11 341.26L338.6 341.15L338.09 341.03L337.59 340.91L337.09 340.78L336.6 340.64L336.11 340.49L335.62 340.34L335.14 340.18L334.67 340.02L334.2 339.85L333.73 339.67L333.27 339.49L332.81 339.3L332.36 339.1L331.91 338.9L331.46 338.69L331.02 338.48L330.59 338.26L330.16 338.03L329.73 337.79L329.31 337.55L328.89 337.3L328.48 337.05L328.07 336.79L327.67 336.52L327.28 336.25L326.89 335.97L326.5 335.69L326.12 335.41L325.75 335.12L325.37 334.82L325.01 334.52L324.65 334.22L324.3 333.91L323.95 333.59L323.6 333.28L323.26 332.95L322.93 332.62L322.6 332.29L322.27 331.95L321.96 331.61L321.64 331.27L321.33 330.91L321.03 330.56L320.73 330.2L320.44 329.83L320.15 329.46L319.87 329.09L319.59 328.71L319.32 328.32L319.05 327.94L318.79 327.54L318.53 327.14L318.28 326.74L318.03 326.33L317.79 325.92L317.56 325.51L317.33 325.08L317.1 324.66L316.88 324.23L316.67 323.79L316.46 323.35L316.25 322.91L316.05 322.46L315.85 322L315.66 321.54L315.48 321.08L315.3 320.62L315.12 320.15L314.95 319.68L314.79 319.21L314.63 318.73L314.47 318.25L314.32 317.77L314.18 317.28L314.04 316.79L313.91 316.3L313.78 315.8L313.65 315.3L313.53 314.8L313.42 314.29L313.31 313.78L313.21 313.27L313.11 312.75L313.01 312.23L312.93 311.71L312.84 311.19L312.76 310.66L312.69 310.12L312.62 309.59L312.56 309.05L312.5 308.51L312.45 307.96L312.4 307.42L312.36 306.86L312.32 306.31L312.29 305.75L312.26 305.19L312.23 304.63L312.22 304.06L312.2 303.49L312.2 302.91L312.19 302.34L312.19 300.53L312.2 299.95L312.2 299.38L312.22 298.8L312.23 298.24L312.26 297.67L312.29 297.11L312.32 296.56L312.36 296L312.4 295.45L312.45 294.9L312.5 294.36L312.56 293.82L312.62 293.28L312.69 292.74L312.76 292.21L312.84 291.68L312.93 291.16L313.01 290.63L313.11 290.12L313.21 289.6L313.31 289.09L313.42 288.58L313.53 288.07L313.65 287.57L313.78 287.07L313.91 286.57L314.04 286.08L314.18 285.59L314.32 285.1L314.47 284.62L314.63 284.14L314.79 283.66L314.95 283.19L315.12 282.72L315.3 282.25L315.48 281.78L315.66 281.32L315.85 280.86L316.05 280.41L316.25 279.96L316.46 279.51L316.67 279.06L316.88 278.62L317.1 278.19L317.33 277.75L317.56 277.33L317.79 276.91L318.03 276.49L318.28 276.08L318.53 275.68L318.79 275.27L319.05 274.88L319.32 274.49L319.59 274.1L319.87 273.72L320.15 273.34L320.44 272.97L320.73 272.6L321.03 272.24L321.33 271.88L321.64 271.53L321.96 271.18L322.27 270.84L322.6 270.5L322.93 270.17L323.26 269.84L323.6 269.52L323.95 269.2L324.3 268.88L324.65 268.58L325.01 268.27L325.37 267.97L325.75 267.68L326.12 267.39L326.5 267.1L326.89 266.83L327.28 266.55L327.67 266.28L328.07 266.02L328.48 265.76L328.89 265.5L329.31 265.25L329.73 265.01L330.15 264.77L330.58 264.54L331.01 264.31L331.45 264.1L331.89 263.89L332.34 263.68L332.79 263.48L333.24 263.29L333.7 263.11L334.16 262.93L334.63 262.76L335.1 262.59L335.58 262.43L336.06 262.28L336.55 262.13L337.04 261.99L337.53 261.86L338.03 261.73L338.54 261.61L339.04 261.5L339.56 261.39L340.07 261.29L340.59 261.19L341.12 261.11L341.65 261.02L342.19 260.95L342.72 260.88L343.27 260.82L343.82 260.76L344.37 260.72L344.92 260.67L345.49 260.64L346.05 260.61L346.62 260.58L347.2 260.57L347.78 260.56L348.36 260.56L348.84 260.56L349.32 260.57ZM209.55 260.57L210.09 260.58L210.62 260.6L211.15 260.63L211.68 260.66L212.21 260.7L212.73 260.74L213.25 260.8L213.76 260.85L214.27 260.91L214.77 260.98L215.27 261.06L215.77 261.14L216.27 261.22L216.76 261.31L217.24 261.41L217.72 261.51L218.2 261.62L218.68 261.74L219.15 261.86L219.61 261.99L220.08 262.12L220.54 262.26L220.99 262.4L221.44 262.56L221.89 262.71L222.33 262.87L222.77 263.04L223.21 263.22L223.64 263.4L224.07 263.58L224.49 263.78L224.91 263.98L225.33 264.18L225.74 264.39L226.15 264.61L226.55 264.83L226.95 265.06L227.35 265.29L227.74 265.53L228.12 265.77L228.51 266.01L228.88 266.27L229.25 266.52L229.62 266.79L229.98 267.05L230.34 267.32L230.7 267.6L231.04 267.88L231.39 268.17L231.73 268.46L232.06 268.76L232.39 269.06L232.72 269.37L233.04 269.68L233.35 270L233.66 270.32L233.97 270.65L234.27 270.98L234.56 271.31L234.85 271.66L235.14 272L235.42 272.36L235.7 272.71L235.97 273.07L236.24 273.44L236.5 273.81L236.76 274.19L237.02 274.57L237.26 274.96L237.51 275.35L237.75 275.75L237.98 276.15L238.21 276.56L238.43 276.97L238.65 277.39L238.87 277.81L239.08 278.24L239.29 278.67L239.49 279.11L239.68 279.54L239.87 279.99L240.05 280.43L240.23 280.88L240.41 281.34L240.58 281.8L240.74 282.26L240.9 282.73L241.06 283.2L241.21 283.67L241.35 284.15L241.49 284.63L241.62 285.12L241.75 285.61L241.88 286.1L242 286.6L242.11 287.1L242.22 287.6L242.33 288.11L242.42 288.63L242.52 289.14L242.61 289.67L242.69 290.19L242.77 290.72L242.84 291.25L242.91 291.79L242.98 292.33L243.03 292.87L243.09 293.42L243.14 293.98L243.18 294.53L243.22 295.09L243.25 295.66L243.28 296.22L243.3 296.8L243.32 297.37L243.33 297.95L243.34 298.54L243.34 299.12L243.34 308.82L194.37 308.82L194.43 309.17L194.5 309.51L194.57 309.85L194.65 310.19L194.73 310.52L194.81 310.85L194.9 311.17L195 311.49L195.09 311.81L195.2 312.12L195.3 312.43L195.41 312.74L195.53 313.04L195.65 313.34L195.77 313.63L195.9 313.92L196.03 314.21L196.17 314.49L196.31 314.77L196.46 315.05L196.61 315.32L196.76 315.59L196.92 315.86L197.08 316.12L197.25 316.38L197.42 316.63L197.6 316.88L197.78 317.13L197.96 317.37L198.15 317.61L198.34 317.85L198.54 318.08L198.74 318.31L198.95 318.54L199.16 318.76L199.38 318.97L199.6 319.19L199.82 319.4L200.05 319.61L200.28 319.81L200.52 320.01L200.76 320.2L201 320.39L201.25 320.58L201.5 320.75L201.75 320.93L202.01 321.1L202.27 321.26L202.53 321.42L202.79 321.57L203.06 321.72L203.34 321.87L203.61 322L203.89 322.14L204.18 322.27L204.46 322.39L204.75 322.51L205.04 322.62L205.34 322.73L205.64 322.83L205.94 322.93L206.25 323.03L206.56 323.11L206.87 323.2L207.19 323.27L207.51 323.35L207.83 323.42L208.16 323.48L208.49 323.54L208.82 323.59L209.16 323.64L209.5 323.68L209.84 323.72L210.19 323.75L210.54 323.78L210.89 323.8L211.25 323.82L211.61 323.83L211.97 323.84L212.34 323.84L212.62 323.84L212.89 323.84L213.17 323.83L213.45 323.82L213.73 323.81L214 323.8L214.27 323.78L214.55 323.76L214.82 323.74L215.09 323.72L215.36 323.69L215.63 323.66L215.89 323.63L216.16 323.6L216.42 323.56L216.69 323.53L216.95 323.48L217.21 323.44L217.48 323.4L217.74 323.35L217.99 323.3L218.25 323.24L218.51 323.19L218.76 323.13L219.02 323.07L219.27 323L219.53 322.94L219.78 322.87L220.03 322.8L220.28 322.73L220.52 322.65L220.77 322.57L221.02 322.49L221.26 322.41L221.51 322.32L221.75 322.23L221.99 322.14L222.23 322.05L222.47 321.95L222.71 321.86L222.95 321.75L223.18 321.65L223.41 321.54L223.64 321.42L223.87 321.31L224.1 321.19L224.33 321.07L224.55 320.95L224.78 320.82L225 320.69L225.22 320.56L225.44 320.43L225.65 320.29L225.87 320.15L226.08 320.01L226.29 319.86L226.5 319.71L226.71 319.56L226.92 319.4L227.12 319.25L227.33 319.09L227.53 318.92L227.73 318.76L227.93 318.59L228.12 318.41L228.32 318.24L228.51 318.06L228.7 317.88L228.9 317.7L229.08 317.51L229.27 317.32L229.46 317.13L229.64 316.93L229.82 316.74L230 316.53L230.18 316.33L230.36 316.12L230.54 315.91L230.71 315.7L230.88 315.49L241.49 328.22L241.28 328.52L241.07 328.81L240.85 329.1L240.62 329.39L240.4 329.67L240.16 329.96L239.93 330.24L239.69 330.51L239.44 330.79L239.19 331.06L238.93 331.33L238.67 331.6L238.4 331.87L238.13 332.13L237.86 332.39L237.58 332.65L237.29 332.91L237 333.16L236.71 333.41L236.41 333.66L236.11 333.91L235.8 334.15L235.49 334.4L235.17 334.64L234.85 334.87L234.52 335.11L234.19 335.34L233.85 335.57L233.51 335.8L233.16 336.03L232.81 336.25L232.45 336.47L232.09 336.69L231.73 336.91L231.36 337.12L230.98 337.33L230.6 337.54L230.22 337.75L229.83 337.96L229.43 338.16L229.03 338.36L228.63 338.55L228.23 338.74L227.82 338.92L227.4 339.1L226.99 339.28L226.57 339.45L226.15 339.61L225.72 339.77L225.29 339.92L224.86 340.07L224.43 340.22L223.99 340.35L223.54 340.49L223.1 340.62L222.65 340.74L222.2 340.86L221.74 340.97L221.29 341.08L220.82 341.18L220.36 341.28L219.89 341.37L219.42 341.46L218.94 341.55L218.46 341.62L217.98 341.7L217.5 341.77L217.01 341.83L216.52 341.89L216.02 341.94L215.52 341.99L215.02 342.03L214.52 342.07L214.01 342.1L213.5 342.13L212.98 342.15L212.46 342.17L211.94 342.18L211.42 342.19L210.89 342.19L210.29 342.19L209.69 342.18L209.1 342.16L208.51 342.14L207.92 342.11L207.34 342.08L206.76 342.03L206.19 341.99L205.62 341.93L205.05 341.87L204.49 341.8L203.93 341.73L203.38 341.65L202.83 341.56L202.28 341.47L201.74 341.37L201.2 341.26L200.67 341.15L200.14 341.03L199.61 340.91L199.09 340.78L198.57 340.64L198.05 340.49L197.54 340.34L197.04 340.18L196.53 340.02L196.03 339.85L195.54 339.67L195.05 339.49L194.56 339.3L194.08 339.1L193.6 338.9L193.12 338.69L192.65 338.48L192.18 338.26L191.72 338.03L191.26 337.79L190.81 337.55L190.35 337.3L189.91 337.05L189.46 336.79L189.02 336.53L188.59 336.26L188.16 335.99L187.74 335.71L187.32 335.43L186.91 335.14L186.5 334.85L186.1 334.56L185.7 334.26L185.31 333.96L184.92 333.65L184.54 333.34L184.16 333.02L183.79 332.7L183.42 332.37L183.06 332.04L182.7 331.71L182.35 331.37L182.01 331.02L181.67 330.67L181.33 330.32L181 329.96L180.67 329.6L180.35 329.23L180.04 328.86L179.73 328.49L179.42 328.11L179.13 327.72L178.83 327.34L178.54 326.94L178.26 326.54L177.98 326.14L177.71 325.73L177.44 325.32L177.17 324.91L176.92 324.49L176.66 324.06L176.41 323.63L176.17 323.2L175.94 322.76L175.71 322.32L175.48 321.88L175.27 321.44L175.06 321L174.85 320.55L174.65 320.1L174.46 319.65L174.27 319.19L174.09 318.73L173.91 318.28L173.75 317.81L173.58 317.35L173.42 316.88L173.27 316.42L173.13 315.95L172.99 315.47L172.85 315L172.73 314.52L172.61 314.04L172.49 313.56L172.38 313.08L172.28 312.59L172.18 312.1L172.09 311.61L172 311.12L171.92 310.62L171.85 310.12L171.78 309.62L171.72 309.12L171.66 308.62L171.61 308.11L171.56 307.6L171.53 307.09L171.49 306.58L171.47 306.06L171.45 305.54L171.43 305.02L171.42 304.5L171.42 303.97L171.42 301.23L171.42 300.64L171.43 300.07L171.44 299.49L171.46 298.92L171.49 298.35L171.52 297.78L171.55 297.22L171.59 296.66L171.64 296.1L171.69 295.54L171.75 294.99L171.81 294.44L171.88 293.9L171.96 293.36L172.04 292.82L172.12 292.28L172.21 291.75L172.31 291.22L172.41 290.69L172.52 290.17L172.63 289.65L172.75 289.13L172.87 288.62L173 288.11L173.14 287.6L173.28 287.1L173.42 286.6L173.58 286.1L173.73 285.6L173.89 285.11L174.06 284.62L174.24 284.14L174.42 283.66L174.6 283.18L174.79 282.7L174.99 282.23L175.19 281.76L175.39 281.29L175.61 280.83L175.82 280.37L176.05 279.91L176.27 279.45L176.5 279L176.74 278.56L176.98 278.12L177.23 277.69L177.48 277.26L177.74 276.83L178 276.41L178.27 276L178.54 275.59L178.82 275.19L179.1 274.79L179.39 274.39L179.68 274L179.97 273.62L180.28 273.24L180.58 272.86L180.89 272.49L181.21 272.13L181.53 271.77L181.86 271.41L182.19 271.06L182.53 270.72L182.87 270.38L183.21 270.04L183.56 269.71L183.92 269.39L184.28 269.07L184.65 268.75L185.02 268.44L185.39 268.14L185.77 267.84L186.16 267.54L186.55 267.25L186.94 266.96L187.34 266.68L187.75 266.41L188.16 266.14L188.57 265.87L188.99 265.61L189.42 265.36L189.84 265.11L190.27 264.87L190.71 264.63L191.15 264.4L191.59 264.18L192.04 263.96L192.49 263.75L192.95 263.55L193.4 263.35L193.87 263.17L194.33 262.98L194.81 262.81L195.28 262.64L195.76 262.47L196.24 262.32L196.73 262.17L197.22 262.03L197.71 261.89L198.21 261.76L198.72 261.64L199.22 261.52L199.73 261.41L200.25 261.31L200.77 261.21L201.29 261.12L201.82 261.04L202.35 260.96L202.88 260.89L203.42 260.83L203.97 260.77L204.51 260.72L205.06 260.68L205.62 260.64L206.18 260.61L206.74 260.59L207.31 260.57L207.88 260.56L208.45 260.56L209 260.56L209.55 260.57ZM104.3 260.57L104.84 260.58L105.37 260.6L105.91 260.63L106.44 260.66L106.96 260.7L107.48 260.74L108 260.8L108.51 260.85L109.02 260.91L109.53 260.98L110.03 261.06L110.52 261.14L111.02 261.22L111.51 261.31L111.99 261.41L112.48 261.51L112.96 261.62L113.43 261.74L113.9 261.86L114.37 261.99L114.83 262.12L115.29 262.26L115.74 262.4L116.19 262.56L116.64 262.71L117.08 262.87L117.52 263.04L117.96 263.22L118.39 263.4L118.82 263.58L119.24 263.78L119.66 263.98L120.08 264.18L120.49 264.39L120.9 264.61L121.3 264.83L121.7 265.06L122.1 265.29L122.49 265.53L122.88 265.77L123.26 266.01L123.64 266.27L124.01 266.52L124.37 266.79L124.74 267.05L125.1 267.32L125.45 267.6L125.8 267.88L126.14 268.17L126.48 268.46L126.81 268.76L127.14 269.06L127.47 269.37L127.79 269.68L128.1 270L128.41 270.32L128.72 270.65L129.02 270.98L129.32 271.31L129.61 271.66L129.89 272L130.18 272.36L130.45 272.71L130.73 273.07L130.99 273.44L131.26 273.81L131.51 274.19L131.77 274.57L132.02 274.96L132.26 275.35L132.5 275.75L132.73 276.15L132.96 276.56L133.19 276.97L133.41 277.39L133.62 277.81L133.83 278.24L134.04 278.67L134.24 279.11L134.43 279.54L134.62 279.99L134.81 280.43L134.99 280.88L135.16 281.34L135.33 281.8L135.5 282.26L135.65 282.73L135.81 283.2L135.96 283.67L136.1 284.15L136.24 284.63L136.38 285.12L136.51 285.61L136.63 286.1L136.75 286.6L136.86 287.1L136.97 287.6L137.08 288.11L137.18 288.63L137.27 289.14L137.36 289.67L137.44 290.19L137.52 290.72L137.6 291.25L137.66 291.79L137.73 292.33L137.79 292.87L137.84 293.42L137.89 293.98L137.93 294.53L137.97 295.09L138 295.66L138.03 296.22L138.05 296.8L138.07 297.37L138.09 297.95L138.09 298.54L138.1 299.12L138.1 308.82L89.12 308.82L89.19 309.17L89.25 309.51L89.32 309.85L89.4 310.19L89.48 310.52L89.57 310.85L89.65 311.17L89.75 311.49L89.85 311.81L89.95 312.12L90.05 312.43L90.17 312.74L90.28 313.04L90.4 313.34L90.52 313.63L90.65 313.92L90.78 314.21L90.92 314.49L91.06 314.77L91.21 315.05L91.36 315.32L91.51 315.59L91.67 315.86L91.83 316.12L92 316.38L92.17 316.63L92.35 316.88L92.53 317.13L92.71 317.37L92.9 317.61L93.1 317.85L93.3 318.08L93.5 318.31L93.7 318.54L93.91 318.76L94.13 318.97L94.35 319.19L94.57 319.4L94.8 319.61L95.03 319.81L95.27 320.01L95.51 320.2L95.75 320.39L96 320.58L96.25 320.75L96.5 320.93L96.76 321.1L97.02 321.26L97.28 321.42L97.55 321.57L97.82 321.72L98.09 321.87L98.37 322L98.65 322.14L98.93 322.27L99.21 322.39L99.5 322.51L99.8 322.62L100.09 322.73L100.39 322.83L100.7 322.93L101 323.03L101.31 323.11L101.62 323.2L101.94 323.27L102.26 323.35L102.58 323.42L102.91 323.48L103.24 323.54L103.57 323.59L103.91 323.64L104.25 323.68L104.59 323.72L104.94 323.75L105.29 323.78L105.64 323.8L106 323.82L106.36 323.83L106.72 323.84L107.09 323.84L107.37 323.84L107.65 323.84L107.93 323.83L108.2 323.82L108.48 323.81L108.75 323.8L109.03 323.78L109.3 323.76L109.57 323.74L109.84 323.72L110.11 323.69L110.38 323.66L110.65 323.63L110.91 323.6L111.18 323.56L111.44 323.53L111.7 323.48L111.97 323.44L112.23 323.4L112.49 323.35L112.75 323.3L113 323.24L113.26 323.19L113.52 323.13L113.77 323.07L114.03 323L114.28 322.94L114.53 322.87L114.78 322.8L115.03 322.73L115.28 322.65L115.52 322.57L115.77 322.49L116.02 322.41L116.26 322.32L116.5 322.23L116.74 322.14L116.98 322.05L117.22 321.95L117.46 321.86L117.7 321.75L117.93 321.65L118.17 321.54L118.4 321.42L118.63 321.31L118.85 321.19L119.08 321.07L119.31 320.95L119.53 320.82L119.75 320.69L119.97 320.56L120.19 320.43L120.4 320.29L120.62 320.15L120.83 320.01L121.04 319.86L121.25 319.71L121.46 319.56L121.67 319.4L121.87 319.25L122.08 319.09L122.28 318.92L122.48 318.76L122.68 318.59L122.88 318.41L123.07 318.24L123.26 318.06L123.46 317.88L123.65 317.7L123.84 317.51L124.02 317.32L124.21 317.13L124.39 316.93L124.58 316.74L124.76 316.53L124.93 316.33L125.11 316.12L125.29 315.91L125.46 315.7L125.63 315.49L136.24 328.22L136.03 328.52L135.82 328.81L135.6 329.1L135.38 329.39L135.15 329.67L134.92 329.96L134.68 330.24L134.44 330.51L134.19 330.79L133.94 331.06L133.68 331.33L133.42 331.6L133.16 331.87L132.89 332.13L132.61 332.39L132.33 332.65L132.05 332.91L131.76 333.16L131.46 333.41L131.16 333.66L130.86 333.91L130.55 334.15L130.24 334.4L129.92 334.64L129.6 334.87L129.27 335.11L128.94 335.34L128.6 335.57L128.26 335.8L127.91 336.03L127.56 336.25L127.21 336.47L126.85 336.69L126.48 336.91L126.11 337.12L125.73 337.33L125.35 337.54L124.97 337.75L124.58 337.96L124.19 338.16L123.79 338.36L123.38 338.55L122.98 338.74L122.57 338.92L122.16 339.1L121.74 339.28L121.32 339.45L120.9 339.61L120.47 339.77L120.05 339.92L119.61 340.07L119.18 340.22L118.74 340.35L118.3 340.49L117.85 340.62L117.4 340.74L116.95 340.86L116.5 340.97L116.04 341.08L115.58 341.18L115.11 341.28L114.64 341.37L114.17 341.46L113.7 341.55L113.22 341.62L112.74 341.7L112.25 341.77L111.76 341.83L111.27 341.89L110.77 341.94L110.28 341.99L109.77 342.03L109.27 342.07L108.76 342.1L108.25 342.13L107.73 342.15L107.22 342.17L106.69 342.18L106.17 342.19L105.64 342.19L105.04 342.19L104.44 342.18L103.85 342.16L103.26 342.14L102.67 342.11L102.09 342.08L101.51 342.03L100.94 341.99L100.37 341.93L99.8 341.87L99.24 341.8L98.68 341.73L98.13 341.65L97.58 341.56L97.03 341.47L96.49 341.37L95.95 341.26L95.42 341.15L94.89 341.03L94.36 340.91L93.84 340.78L93.32 340.64L92.81 340.49L92.29 340.34L91.79 340.18L91.29 340.02L90.79 339.85L90.29 339.67L89.8 339.49L89.31 339.3L88.83 339.1L88.35 338.9L87.88 338.69L87.4 338.48L86.94 338.26L86.47 338.03L86.01 337.79L85.56 337.55L85.11 337.3L84.66 337.05L84.22 336.79L83.78 336.53L83.34 336.26L82.91 335.99L82.49 335.71L82.07 335.43L81.66 335.14L81.25 334.85L80.85 334.56L80.45 334.26L80.06 333.96L79.67 333.65L79.29 333.34L78.91 333.02L78.54 332.7L78.17 332.37L77.81 332.04L77.46 331.71L77.11 331.37L76.76 331.02L76.42 330.67L76.08 330.32L75.75 329.96L75.43 329.6L75.11 329.23L74.79 328.86L74.48 328.49L74.18 328.11L73.88 327.72L73.58 327.34L73.29 326.94L73.01 326.54L72.73 326.14L72.46 325.73L72.19 325.32L71.93 324.91L71.67 324.49L71.41 324.06L71.17 323.63L70.92 323.2L70.69 322.76L70.46 322.32L70.24 321.88L70.02 321.44L69.81 321L69.6 320.55L69.4 320.1L69.21 319.65L69.02 319.19L68.84 318.73L68.67 318.28L68.5 317.81L68.33 317.35L68.18 316.88L68.03 316.42L67.88 315.95L67.74 315.47L67.61 315L67.48 314.52L67.36 314.04L67.24 313.56L67.13 313.08L67.03 312.59L66.93 312.1L66.84 311.61L66.75 311.12L66.67 310.62L66.6 310.12L66.53 309.62L66.47 309.12L66.41 308.62L66.36 308.11L66.32 307.6L66.28 307.09L66.25 306.58L66.22 306.06L66.2 305.54L66.18 305.02L66.17 304.5L66.17 303.97L66.17 301.23L66.17 300.64L66.18 300.07L66.2 299.49L66.22 298.92L66.24 298.35L66.27 297.78L66.31 297.22L66.35 296.66L66.39 296.1L66.45 295.54L66.5 294.99L66.57 294.44L66.64 293.9L66.71 293.36L66.79 292.82L66.87 292.28L66.97 291.75L67.06 291.22L67.16 290.69L67.27 290.17L67.38 289.65L67.5 289.13L67.63 288.62L67.76 288.11L67.89 287.6L68.03 287.1L68.18 286.6L68.33 286.1L68.48 285.6L68.65 285.11L68.82 284.62L68.99 284.14L69.17 283.66L69.35 283.18L69.54 282.7L69.74 282.23L69.94 281.76L70.15 281.29L70.36 280.83L70.58 280.37L70.8 279.91L71.03 279.45L71.26 279L71.49 278.56L71.74 278.12L71.98 277.69L72.24 277.26L72.49 276.83L72.75 276.41L73.02 276L73.29 275.59L73.57 275.19L73.85 274.79L74.14 274.39L74.43 274L74.73 273.62L75.03 273.24L75.33 272.86L75.65 272.49L75.96 272.13L76.28 271.77L76.61 271.41L76.94 271.06L77.28 270.72L77.62 270.38L77.97 270.04L78.32 269.71L78.67 269.39L79.03 269.07L79.4 268.75L79.77 268.44L80.14 268.14L80.53 267.84L80.91 267.54L81.3 267.25L81.7 266.96L82.1 266.68L82.5 266.41L82.91 266.14L83.33 265.87L83.75 265.61L84.17 265.36L84.6 265.11L85.03 264.87L85.46 264.63L85.9 264.4L86.34 264.18L86.79 263.96L87.24 263.75L87.7 263.55L88.16 263.35L88.62 263.17L89.09 262.98L89.56 262.81L90.03 262.64L90.51 262.47L90.99 262.32L91.48 262.17L91.97 262.03L92.47 261.89L92.97 261.76L93.47 261.64L93.98 261.52L94.49 261.41L95 261.31L95.52 261.21L96.04 261.12L96.57 261.04L97.1 260.96L97.64 260.89L98.18 260.83L98.72 260.77L99.26 260.72L99.82 260.68L100.37 260.64L100.93 260.61L101.49 260.59L102.06 260.57L102.63 260.56L103.21 260.56L103.75 260.56L104.3 260.57ZM277.8 260.56L278.29 260.57L278.79 260.59L279.28 260.61L279.76 260.63L280.25 260.66L280.73 260.69L281.2 260.72L281.68 260.76L282.15 260.8L282.62 260.85L283.08 260.9L283.54 260.96L284 261.02L284.45 261.08L284.91 261.15L285.35 261.22L285.8 261.3L286.24 261.38L286.68 261.46L287.12 261.55L287.55 261.64L287.98 261.74L288.4 261.84L288.83 261.94L289.25 262.05L289.66 262.16L290.08 262.28L290.49 262.4L290.89 262.52L291.3 262.65L291.7 262.78L292.1 262.92L292.49 263.06L292.88 263.21L293.27 263.36L293.65 263.51L294.04 263.67L294.41 263.83L294.79 263.99L295.16 264.16L295.52 264.33L295.88 264.5L296.24 264.67L296.59 264.85L296.94 265.03L297.28 265.22L297.62 265.41L297.96 265.6L298.29 265.79L298.62 265.99L298.94 266.19L299.26 266.39L299.57 266.6L299.88 266.81L300.18 267.03L300.49 267.24L300.78 267.46L301.07 267.69L301.36 267.91L301.65 268.14L301.92 268.38L302.2 268.61L302.47 268.85L302.74 269.09L303 269.34L303.25 269.59L303.51 269.84L303.76 270.1L304 270.35L304.24 270.62L304.48 270.88L304.71 271.15L304.94 271.42L305.16 271.7L305.38 271.97L305.59 272.26L305.8 272.54L306.01 272.83L306.21 273.12L306.41 273.41L306.6 273.7L306.79 274L306.97 274.3L307.15 274.6L307.32 274.9L307.49 275.21L307.65 275.52L307.8 275.83L307.96 276.14L308.1 276.45L308.24 276.77L308.38 277.09L308.51 277.41L308.64 277.73L308.76 278.05L308.87 278.38L308.98 278.71L309.09 279.04L309.19 279.37L309.29 279.71L309.38 280.04L309.46 280.38L309.54 280.72L309.62 281.07L309.68 281.41L309.75 281.76L309.81 282.11L309.86 282.46L309.91 282.81L309.96 283.17L309.99 283.53L310.03 283.89L310.06 284.25L310.08 284.61L310.1 284.98L310.11 285.35L310.12 285.72L310.12 286.09L287.63 286.09L287.63 285.86L287.63 285.64L287.62 285.41L287.61 285.19L287.59 284.97L287.57 284.76L287.55 284.54L287.53 284.33L287.5 284.13L287.47 283.92L287.43 283.72L287.39 283.52L287.35 283.32L287.3 283.12L287.26 282.93L287.2 282.74L287.15 282.55L287.09 282.37L287.03 282.19L286.96 282.01L286.89 281.83L286.82 281.66L286.75 281.48L286.67 281.31L286.59 281.15L286.5 280.98L286.41 280.82L286.32 280.66L286.23 280.51L286.13 280.35L286.03 280.2L285.92 280.06L285.82 279.91L285.7 279.77L285.59 279.63L285.47 279.49L285.35 279.35L285.23 279.22L285.1 279.09L284.97 278.96L284.84 278.84L284.7 278.71L284.56 278.59L284.42 278.48L284.27 278.36L284.12 278.25L283.96 278.14L283.8 278.04L283.64 277.94L283.47 277.84L283.3 277.75L283.13 277.65L282.95 277.57L282.77 277.48L282.59 277.4L282.4 277.32L282.2 277.24L282.01 277.17L281.81 277.1L281.6 277.04L281.39 276.97L281.18 276.91L280.97 276.86L280.75 276.8L280.53 276.75L280.3 276.71L280.07 276.66L279.84 276.62L279.6 276.59L279.36 276.55L279.11 276.52L278.86 276.5L278.61 276.47L278.35 276.45L278.09 276.43L277.83 276.42L277.56 276.41L277.29 276.4L277.02 276.39L276.74 276.39L276.51 276.39L276.28 276.4L276.06 276.4L275.84 276.41L275.62 276.43L275.4 276.44L275.19 276.46L274.98 276.48L274.77 276.5L274.56 276.53L274.35 276.56L274.15 276.59L273.95 276.62L273.75 276.66L273.55 276.7L273.36 276.74L273.17 276.79L272.98 276.83L272.79 276.88L272.61 276.94L272.42 276.99L272.24 277.05L272.06 277.11L271.89 277.17L271.72 277.24L271.54 277.31L271.37 277.38L271.21 277.46L271.04 277.53L270.88 277.61L270.72 277.69L270.56 277.78L270.41 277.87L270.25 277.96L270.1 278.05L269.95 278.15L269.8 278.24L269.66 278.34L269.52 278.45L269.38 278.55L269.24 278.66L269.11 278.77L268.98 278.89L268.85 279L268.73 279.12L268.61 279.23L268.49 279.35L268.38 279.47L268.27 279.59L268.16 279.72L268.06 279.84L267.96 279.97L267.86 280.1L267.77 280.23L267.68 280.36L267.6 280.49L267.52 280.63L267.44 280.76L267.36 280.9L267.29 281.04L267.22 281.18L267.16 281.32L267.1 281.47L267.04 281.61L266.99 281.76L266.94 281.91L266.89 282.06L266.85 282.21L266.81 282.37L266.77 282.52L266.74 282.68L266.71 282.84L266.68 283L266.66 283.16L266.64 283.32L266.62 283.49L266.61 283.65L266.6 283.82L266.6 283.99L266.6 284.16L266.6 284.33L266.6 284.49L266.61 284.66L266.63 284.82L266.64 284.98L266.67 285.14L266.69 285.29L266.72 285.45L266.76 285.6L266.79 285.75L266.84 285.9L266.88 286.05L266.93 286.2L266.98 286.35L267.04 286.49L267.1 286.63L267.17 286.77L267.24 286.91L267.31 287.05L267.39 287.19L267.47 287.32L267.56 287.46L267.65 287.59L267.74 287.72L267.84 287.85L267.94 287.98L268.05 288.1L268.16 288.23L268.27 288.35L268.39 288.47L268.51 288.59L268.63 288.71L268.76 288.82L268.9 288.94L269.03 289.05L269.18 289.17L269.32 289.28L269.47 289.38L269.63 289.49L269.78 289.6L269.94 289.7L270.11 289.8L270.28 289.9L270.46 290L270.64 290.1L270.83 290.2L271.02 290.3L271.22 290.39L271.43 290.49L271.64 290.58L271.85 290.68L272.07 290.77L272.3 290.86L272.53 290.96L272.76 291.05L273 291.14L273.25 291.22L273.5 291.31L273.76 291.4L274.02 291.49L274.29 291.57L274.56 291.66L274.84 291.74L275.12 291.82L275.41 291.91L275.71 291.99L276.01 292.07L276.31 292.15L276.62 292.23L276.94 292.31L277.26 292.38L277.59 292.46L277.92 292.54L278.25 292.61L278.6 292.69L278.94 292.76L279.3 292.83L279.66 292.9L280.02 292.98L280.39 293.05L280.84 293.13L281.3 293.21L281.75 293.3L282.19 293.39L282.63 293.47L283.07 293.56L283.51 293.66L283.94 293.75L284.37 293.84L284.8 293.94L285.22 294.04L285.64 294.14L286.05 294.24L286.46 294.34L286.87 294.44L287.28 294.54L287.68 294.65L288.08 294.76L288.47 294.87L288.86 294.98L289.25 295.09L289.64 295.2L290.02 295.32L290.4 295.43L290.77 295.55L291.14 295.67L291.51 295.79L291.87 295.91L292.23 296.03L292.59 296.16L292.95 296.28L293.3 296.41L293.64 296.54L293.99 296.67L294.33 296.8L294.67 296.94L295 297.07L295.33 297.21L295.66 297.35L295.98 297.49L296.3 297.63L296.62 297.77L296.94 297.91L297.25 298.06L297.56 298.21L297.86 298.36L298.17 298.52L298.47 298.68L298.76 298.84L299.05 299L299.34 299.17L299.63 299.34L299.91 299.51L300.19 299.69L300.47 299.87L300.74 300.05L301.01 300.23L301.28 300.42L301.54 300.6L301.8 300.8L302.06 300.99L302.31 301.19L302.56 301.39L302.81 301.59L303.05 301.79L303.29 302L303.53 302.21L303.76 302.43L303.99 302.64L304.21 302.86L304.44 303.08L304.66 303.31L304.87 303.53L305.09 303.76L305.3 304L305.5 304.23L305.71 304.47L305.91 304.71L306.1 304.95L306.3 305.2L306.49 305.45L306.67 305.71L306.85 305.96L307.03 306.22L307.2 306.49L307.37 306.76L307.53 307.03L307.69 307.3L307.84 307.58L307.99 307.86L308.13 308.15L308.27 308.44L308.4 308.73L308.53 309.03L308.66 309.33L308.78 309.63L308.89 309.93L309 310.24L309.1 310.56L309.2 310.87L309.3 311.19L309.39 311.52L309.47 311.85L309.55 312.18L309.63 312.51L309.7 312.85L309.77 313.19L309.83 313.53L309.88 313.88L309.93 314.23L309.98 314.59L310.02 314.95L310.06 315.31L310.09 315.67L310.12 316.04L310.14 316.42L310.16 316.79L310.17 317.17L310.18 317.55L310.18 317.94L310.18 318.29L310.17 318.63L310.16 318.98L310.14 319.32L310.11 319.66L310.09 320L310.05 320.33L310.01 320.67L309.97 321L309.92 321.33L309.87 321.66L309.81 321.99L309.74 322.32L309.67 322.64L309.6 322.96L309.52 323.28L309.43 323.6L309.34 323.92L309.25 324.24L309.15 324.55L309.04 324.86L308.93 325.17L308.82 325.48L308.7 325.78L308.57 326.09L308.44 326.39L308.3 326.69L308.16 326.99L308.01 327.29L307.86 327.59L307.71 327.88L307.54 328.17L307.38 328.46L307.2 328.75L307.03 329.04L306.84 329.32L306.66 329.61L306.46 329.89L306.27 330.17L306.06 330.45L305.85 330.72L305.64 330.99L305.42 331.26L305.2 331.52L304.98 331.78L304.75 332.04L304.51 332.3L304.27 332.55L304.03 332.8L303.78 333.05L303.53 333.29L303.28 333.53L303.02 333.77L302.75 334.01L302.48 334.24L302.21 334.47L301.93 334.69L301.65 334.92L301.36 335.14L301.07 335.36L300.78 335.57L300.48 335.78L300.18 335.99L299.87 336.2L299.56 336.4L299.24 336.6L298.92 336.8L298.59 336.99L298.27 337.18L297.93 337.37L297.59 337.56L297.25 337.74L296.9 337.92L296.55 338.09L296.2 338.27L295.84 338.44L295.47 338.61L295.11 338.77L294.73 338.93L294.36 339.09L293.98 339.25L293.6 339.4L293.21 339.54L292.82 339.68L292.43 339.82L292.04 339.95L291.64 340.08L291.24 340.21L290.84 340.33L290.43 340.45L290.02 340.56L289.61 340.67L289.19 340.78L288.77 340.88L288.35 340.98L287.93 341.07L287.5 341.16L287.07 341.25L286.63 341.34L286.2 341.41L285.75 341.49L285.31 341.56L284.86 341.63L284.41 341.69L283.96 341.75L283.51 341.81L283.05 341.86L282.58 341.91L282.12 341.96L281.65 342L281.18 342.03L280.7 342.07L280.23 342.1L279.75 342.12L279.26 342.14L278.77 342.16L278.28 342.17L277.79 342.18L277.3 342.19L276.8 342.19L276.27 342.19L275.75 342.18L275.23 342.17L274.71 342.15L274.2 342.13L273.69 342.1L273.19 342.07L272.68 342.04L272.19 342L271.69 341.95L271.2 341.9L270.71 341.84L270.23 341.78L269.75 341.72L269.27 341.65L268.8 341.57L268.33 341.49L267.86 341.41L267.4 341.32L266.94 341.23L266.48 341.13L266.03 341.02L265.58 340.92L265.13 340.8L264.69 340.68L264.25 340.56L263.82 340.43L263.39 340.3L262.96 340.16L262.53 340.02L262.11 339.87L261.7 339.72L261.28 339.57L260.87 339.4L260.46 339.24L260.06 339.07L259.66 338.89L259.26 338.71L258.87 338.52L258.48 338.33L258.1 338.14L257.72 337.94L257.34 337.74L256.97 337.53L256.61 337.32L256.25 337.11L255.89 336.9L255.54 336.68L255.19 336.46L254.85 336.24L254.51 336.02L254.18 335.79L253.85 335.56L253.53 335.33L253.21 335.09L252.89 334.85L252.58 334.61L252.28 334.36L251.98 334.12L251.68 333.87L251.39 333.61L251.1 333.36L250.82 333.1L250.54 332.84L250.27 332.58L250 332.31L249.73 332.04L249.47 331.77L249.22 331.49L248.97 331.21L248.72 330.93L248.48 330.65L248.24 330.36L248.01 330.07L247.78 329.78L247.56 329.49L247.34 329.19L247.13 328.89L246.92 328.59L246.72 328.28L246.52 327.97L246.32 327.66L246.13 327.35L245.94 327.04L245.76 326.73L245.59 326.42L245.42 326.11L245.25 325.8L245.09 325.48L244.94 325.17L244.79 324.85L244.65 324.54L244.51 324.23L244.37 323.91L244.24 323.59L244.12 323.28L244 322.96L243.88 322.64L243.78 322.33L243.67 322.01L243.57 321.69L243.48 321.37L243.39 321.05L243.31 320.73L243.23 320.41L243.16 320.09L243.09 319.77L243.02 319.44L242.97 319.12L242.91 318.8L242.86 318.47L242.82 318.15L242.78 317.83L242.75 317.5L242.72 317.18L242.7 316.85L242.68 316.52L242.67 316.2L242.66 315.87L242.66 315.54L263.87 315.54L263.88 315.81L263.9 316.08L263.92 316.34L263.95 316.6L263.98 316.85L264.01 317.1L264.05 317.35L264.1 317.59L264.14 317.83L264.2 318.07L264.25 318.31L264.31 318.54L264.38 318.77L264.45 318.99L264.52 319.21L264.6 319.43L264.68 319.64L264.77 319.86L264.86 320.06L264.95 320.27L265.05 320.47L265.16 320.67L265.27 320.86L265.38 321.05L265.49 321.24L265.62 321.43L265.74 321.61L265.87 321.79L266 321.96L266.14 322.13L266.28 322.3L266.43 322.47L266.58 322.63L266.74 322.79L266.89 322.94L267.06 323.09L267.23 323.24L267.4 323.39L267.57 323.53L267.75 323.67L267.94 323.8L268.13 323.93L268.32 324.06L268.52 324.18L268.71 324.3L268.91 324.41L269.11 324.53L269.32 324.64L269.53 324.74L269.74 324.84L269.95 324.94L270.17 325.04L270.39 325.13L270.61 325.22L270.83 325.31L271.06 325.39L271.29 325.47L271.52 325.54L271.75 325.62L271.99 325.68L272.23 325.75L272.48 325.81L272.72 325.87L272.97 325.93L273.22 325.98L273.48 326.03L273.73 326.07L273.99 326.11L274.25 326.15L274.52 326.19L274.79 326.22L275.06 326.25L275.33 326.27L275.61 326.29L275.88 326.31L276.17 326.33L276.45 326.34L276.74 326.35L277.03 326.35L277.32 326.35L277.58 326.35L277.84 326.35L278.1 326.34L278.36 326.33L278.61 326.32L278.86 326.31L279.11 326.29L279.35 326.27L279.59 326.25L279.83 326.23L280.06 326.2L280.29 326.17L280.52 326.14L280.75 326.11L280.97 326.07L281.19 326.03L281.4 325.99L281.62 325.94L281.83 325.9L282.04 325.85L282.24 325.79L282.44 325.74L282.64 325.68L282.83 325.62L283.03 325.56L283.21 325.49L283.4 325.43L283.58 325.36L283.76 325.28L283.94 325.21L284.12 325.13L284.29 325.05L284.45 324.97L284.62 324.88L284.78 324.79L284.94 324.7L285.1 324.61L285.25 324.51L285.4 324.41L285.55 324.31L285.69 324.2L285.84 324.1L285.97 323.99L286.11 323.87L286.24 323.76L286.37 323.65L286.49 323.53L286.61 323.41L286.73 323.29L286.84 323.17L286.95 323.05L287.05 322.92L287.16 322.79L287.25 322.67L287.35 322.53L287.44 322.4L287.53 322.27L287.61 322.13L287.69 321.99L287.76 321.86L287.84 321.71L287.9 321.57L287.97 321.43L288.03 321.28L288.09 321.13L288.14 320.98L288.19 320.83L288.24 320.68L288.28 320.52L288.32 320.37L288.35 320.21L288.38 320.05L288.41 319.88L288.44 319.72L288.46 319.55L288.47 319.39L288.49 319.22L288.5 319.05L288.5 318.87L288.5 318.7L288.5 318.59L288.5 318.49L288.5 318.38L288.49 318.28L288.48 318.17L288.47 318.07L288.46 317.97L288.45 317.87L288.43 317.76L288.42 317.66L288.4 317.56L288.38 317.47L288.36 317.37L288.34 317.27L288.31 317.18L288.29 317.08L288.26 316.99L288.23 316.89L288.2 316.8L288.17 316.71L288.13 316.61L288.1 316.52L288.06 316.43L288.02 316.34L287.98 316.25L287.94 316.17L287.89 316.08L287.85 315.99L287.8 315.91L287.75 315.82L287.7 315.74L287.65 315.66L287.59 315.57L287.54 315.49L287.48 315.41L287.42 315.33L287.36 315.25L287.3 315.17L287.24 315.1L287.17 315.02L287.1 314.94L287.03 314.86L286.96 314.78L286.88 314.71L286.8 314.63L286.72 314.55L286.64 314.48L286.55 314.4L286.46 314.32L286.37 314.25L286.27 314.17L286.18 314.1L286.08 314.02L285.98 313.95L285.87 313.88L285.76 313.8L285.65 313.73L285.54 313.66L285.43 313.59L285.31 313.52L285.19 313.44L285.07 313.37L284.94 313.3L284.81 313.23L284.68 313.16L284.55 313.09L284.42 313.02L284.28 312.95L284.14 312.89L283.99 312.82L283.85 312.75L283.7 312.68L283.55 312.62L283.39 312.55L283.24 312.48L283.08 312.42L282.92 312.35L282.75 312.28L282.59 312.22L282.42 312.15L282.25 312.09L282.07 312.02L281.9 311.95L281.71 311.89L281.53 311.82L281.34 311.75L281.15 311.69L280.95 311.62L280.75 311.55L280.55 311.49L280.34 311.42L280.13 311.35L279.92 311.29L279.7 311.22L279.48 311.15L279.25 311.08L279.02 311.02L278.79 310.95L278.55 310.88L278.31 310.82L278.07 310.75L277.82 310.68L277.57 310.61L277.31 310.55L277.06 310.48L276.79 310.41L276.53 310.35L276.26 310.28L275.98 310.21L275.71 310.14L275.43 310.08L275.14 310.01L274.86 309.94L274.56 309.87L274.27 309.81L273.97 309.74L273.67 309.67L273.36 309.6L273.05 309.53L272.74 309.47L272.1 309.33L271.48 309.18L270.86 309.04L270.24 308.89L269.63 308.73L269.03 308.57L268.44 308.41L267.85 308.25L267.27 308.08L266.69 307.9L266.13 307.72L265.57 307.54L265.01 307.36L264.46 307.17L263.92 306.97L263.39 306.78L262.86 306.58L262.34 306.37L261.83 306.16L261.32 305.95L260.82 305.73L260.32 305.51L259.84 305.29L259.35 305.06L258.88 304.83L258.41 304.59L257.95 304.35L257.5 304.11L257.05 303.86L256.61 303.61L256.18 303.35L255.75 303.09L255.33 302.83L254.91 302.56L254.51 302.29L254.11 302.02L253.71 301.74L253.32 301.45L252.94 301.17L252.57 300.88L252.21 300.58L251.85 300.28L251.51 299.98L251.17 299.67L250.84 299.36L250.53 299.04L250.22 298.72L249.92 298.39L249.63 298.06L249.35 297.72L249.08 297.38L248.81 297.03L248.56 296.68L248.32 296.32L248.08 295.96L247.86 295.59L247.64 295.22L247.43 294.84L247.24 294.46L247.05 294.07L246.87 293.68L246.7 293.29L246.54 292.89L246.39 292.48L246.24 292.07L246.11 291.65L245.99 291.23L245.87 290.81L245.77 290.38L245.67 289.95L245.58 289.51L245.5 289.06L245.43 288.61L245.37 288.16L245.32 287.7L245.28 287.24L245.25 286.77L245.23 286.29L245.21 285.82L245.21 285.33L245.21 285L245.22 284.66L245.23 284.33L245.25 284L245.27 283.67L245.29 283.34L245.32 283.02L245.36 282.69L245.4 282.37L245.44 282.04L245.49 281.72L245.55 281.4L245.61 281.08L245.67 280.76L245.74 280.45L245.81 280.13L245.89 279.82L245.97 279.5L246.06 279.19L246.15 278.88L246.24 278.57L246.35 278.26L246.45 277.96L246.56 277.65L246.68 277.35L246.8 277.05L246.92 276.74L247.05 276.44L247.19 276.14L247.32 275.85L247.47 275.55L247.62 275.26L247.77 274.96L247.93 274.67L248.09 274.38L248.26 274.09L248.43 273.8L248.61 273.51L248.79 273.23L248.98 272.94L249.17 272.66L249.37 272.38L249.57 272.11L249.77 271.84L249.98 271.57L250.2 271.3L250.42 271.04L250.64 270.77L250.87 270.52L251.1 270.26L251.33 270.01L251.57 269.76L251.81 269.51L252.06 269.27L252.31 269.03L252.57 268.79L252.82 268.55L253.09 268.32L253.36 268.09L253.63 267.86L253.9 267.64L254.18 267.42L254.47 267.2L254.76 266.99L255.05 266.77L255.34 266.57L255.65 266.36L255.95 266.16L256.26 265.96L256.57 265.76L256.89 265.56L257.21 265.37L257.54 265.18L257.87 265L258.2 264.81L258.54 264.63L258.88 264.46L259.23 264.28L259.58 264.11L259.93 263.94L260.29 263.78L260.65 263.62L261.02 263.46L261.39 263.3L261.76 263.15L262.14 263.01L262.52 262.87L262.9 262.73L263.29 262.6L263.67 262.47L264.07 262.34L264.46 262.22L264.86 262.1L265.26 261.99L265.66 261.88L266.07 261.78L266.48 261.68L266.9 261.58L267.31 261.49L267.73 261.41L268.16 261.32L268.58 261.25L269.01 261.17L269.44 261.1L269.88 261.03L270.32 260.97L270.76 260.92L271.21 260.86L271.66 260.81L272.11 260.77L272.56 260.73L273.02 260.69L273.48 260.66L273.94 260.63L274.41 260.61L274.88 260.59L275.36 260.57L275.83 260.56L276.31 260.56L276.8 260.56L277.3 260.56L277.8 260.56ZM420.14 260.57L420.72 260.58L421.29 260.61L421.86 260.64L422.43 260.67L422.99 260.72L423.55 260.76L424.1 260.82L424.65 260.88L425.19 260.95L425.73 261.02L426.26 261.11L426.8 261.19L427.32 261.29L427.85 261.39L428.37 261.5L428.88 261.61L429.39 261.73L429.9 261.86L430.4 261.99L430.9 262.13L431.39 262.28L431.88 262.43L432.37 262.59L432.85 262.76L433.32 262.93L433.8 263.11L434.27 263.29L434.73 263.48L435.19 263.68L435.65 263.89L436.1 264.1L436.55 264.31L436.99 264.54L437.43 264.77L437.86 265.01L438.3 265.25L438.72 265.5L439.14 265.76L439.56 266.02L439.98 266.28L440.39 266.55L440.79 266.83L441.19 267.1L441.59 267.39L441.98 267.68L442.36 267.97L442.74 268.27L443.12 268.58L443.49 268.88L443.85 269.2L444.21 269.52L444.56 269.84L444.91 270.17L445.25 270.5L445.59 270.84L445.92 271.18L446.25 271.53L446.58 271.88L446.89 272.24L447.21 272.6L447.51 272.97L447.82 273.34L448.11 273.72L448.41 274.1L448.69 274.49L448.97 274.88L449.25 275.27L449.52 275.68L449.79 276.08L450.05 276.49L450.31 276.91L450.56 277.33L450.8 277.75L451.04 278.19L451.28 278.62L451.51 279.06L451.73 279.51L451.95 279.96L452.17 280.41L452.38 280.87L452.59 281.33L452.79 281.8L452.98 282.26L453.17 282.74L453.36 283.21L453.53 283.69L453.71 284.17L453.88 284.65L454.04 285.14L454.2 285.63L454.35 286.12L454.49 286.62L454.63 287.12L454.77 287.62L454.9 288.13L455.02 288.64L455.14 289.15L455.25 289.66L455.36 290.18L455.46 290.7L455.56 291.23L455.65 291.76L455.74 292.29L455.82 292.82L455.89 293.36L455.96 293.9L456.02 294.45L456.08 294.99L456.13 295.55L456.18 296.1L456.22 296.66L456.26 297.22L456.29 297.78L456.31 298.35L456.33 298.91L456.35 299.49L456.35 300.06L456.36 300.64L456.36 302.16L456.35 302.74L456.35 303.31L456.33 303.88L456.31 304.45L456.29 305.02L456.26 305.58L456.22 306.14L456.18 306.69L456.13 307.24L456.08 307.79L456.02 308.34L455.96 308.88L455.89 309.42L455.82 309.96L455.74 310.49L455.65 311.03L455.56 311.55L455.46 312.08L455.36 312.6L455.25 313.12L455.14 313.63L455.02 314.15L454.9 314.66L454.77 315.16L454.63 315.67L454.49 316.17L454.35 316.66L454.2 317.16L454.04 317.65L453.88 318.14L453.71 318.62L453.53 319.1L453.36 319.58L453.17 320.06L452.98 320.53L452.79 321L452.59 321.47L452.38 321.93L452.17 322.39L451.95 322.85L451.73 323.3L451.51 323.75L451.28 324.19L451.04 324.62L450.8 325.05L450.56 325.48L450.31 325.9L450.05 326.32L449.79 326.73L449.52 327.14L449.25 327.54L448.98 327.94L448.7 328.33L448.41 328.72L448.12 329.1L447.82 329.48L447.52 329.85L447.22 330.21L446.9 330.58L446.59 330.93L446.27 331.29L445.94 331.63L445.61 331.98L445.27 332.32L444.93 332.65L444.58 332.98L444.23 333.3L443.88 333.62L443.51 333.93L443.15 334.24L442.77 334.54L442.4 334.84L442.02 335.13L441.63 335.42L441.24 335.7L440.84 335.98L440.44 336.26L440.03 336.53L439.62 336.79L439.2 337.05L438.78 337.3L438.35 337.55L437.92 337.79L437.49 338.03L437.05 338.26L436.61 338.48L436.16 338.69L435.71 338.9L435.25 339.1L434.79 339.3L434.33 339.49L433.86 339.67L433.39 339.85L432.91 340.02L432.43 340.18L431.95 340.34L431.46 340.49L430.97 340.64L430.47 340.78L429.97 340.91L429.46 341.03L428.95 341.15L428.44 341.26L427.92 341.37L427.4 341.47L426.88 341.56L426.35 341.65L425.81 341.73L425.28 341.8L424.73 341.87L424.19 341.93L423.64 341.99L423.08 342.03L422.53 342.08L421.96 342.11L421.4 342.14L420.83 342.16L420.25 342.18L419.67 342.19L419.09 342.19L418.51 342.19L417.93 342.18L417.35 342.16L416.78 342.14L416.21 342.11L415.65 342.08L415.09 342.03L414.54 341.99L413.99 341.93L413.44 341.87L412.9 341.8L412.36 341.73L411.82 341.65L411.29 341.56L410.76 341.47L410.24 341.37L409.72 341.26L409.21 341.15L408.7 341.03L408.19 340.91L407.69 340.78L407.19 340.64L406.7 340.49L406.21 340.34L405.72 340.18L405.24 340.02L404.76 339.85L404.29 339.67L403.82 339.49L403.35 339.3L402.89 339.1L402.44 338.9L401.98 338.69L401.53 338.48L401.09 338.26L400.65 338.03L400.21 337.79L399.78 337.55L399.35 337.3L398.92 337.05L398.5 336.79L398.09 336.53L397.67 336.26L397.27 335.98L396.87 335.7L396.47 335.42L396.08 335.13L395.7 334.84L395.32 334.54L394.95 334.24L394.58 333.93L394.21 333.62L393.85 333.3L393.5 332.98L393.15 332.65L392.81 332.32L392.47 331.98L392.14 331.63L391.81 331.29L391.49 330.93L391.17 330.58L390.86 330.21L390.55 329.85L390.25 329.48L389.95 329.1L389.66 328.72L389.37 328.33L389.09 327.94L388.81 327.54L388.54 327.14L388.28 326.73L388.02 326.32L387.76 325.9L387.51 325.48L387.27 325.05L387.02 324.62L386.79 324.19L386.56 323.75L386.33 323.3L386.11 322.85L385.9 322.39L385.69 321.94L385.49 321.48L385.29 321.01L385.1 320.55L384.91 320.08L384.73 319.6L384.55 319.13L384.38 318.65L384.21 318.16L384.05 317.68L383.9 317.19L383.75 316.69L383.6 316.2L383.47 315.7L383.33 315.19L383.2 314.69L383.08 314.18L382.97 313.67L382.85 313.15L382.75 312.63L382.65 312.11L382.55 311.59L382.46 311.06L382.38 310.53L382.3 309.99L382.23 309.45L382.16 308.91L382.1 308.37L382.04 307.82L381.99 307.27L381.94 306.71L381.9 306.16L381.87 305.59L381.84 305.03L381.81 304.46L381.79 303.89L381.78 303.32L381.77 302.74L381.77 302.16L381.77 300.64L381.77 300.07L381.78 299.49L381.79 298.92L381.81 298.35L381.84 297.79L381.87 297.23L381.9 296.67L381.94 296.12L381.99 295.56L382.04 295.02L382.1 294.47L382.16 293.93L382.23 293.39L382.3 292.85L382.38 292.32L382.46 291.79L382.55 291.26L382.65 290.74L382.75 290.22L382.85 289.7L382.97 289.19L383.08 288.68L383.2 288.17L383.33 287.67L383.47 287.17L383.6 286.67L383.75 286.17L383.9 285.68L384.05 285.19L384.21 284.7L384.38 284.22L384.55 283.74L384.73 283.27L384.91 282.79L385.1 282.32L385.29 281.85L385.49 281.39L385.69 280.93L385.9 280.47L386.11 280.01L386.33 279.56L386.56 279.11L386.79 278.67L387.02 278.23L387.26 277.8L387.51 277.37L387.76 276.95L388.02 276.53L388.28 276.11L388.54 275.71L388.81 275.3L389.09 274.9L389.37 274.51L389.65 274.12L389.94 273.74L390.24 273.36L390.54 272.99L390.85 272.62L391.16 272.25L391.47 271.89L391.79 271.54L392.12 271.19L392.45 270.85L392.79 270.51L393.13 270.17L393.48 269.84L393.83 269.52L394.19 269.2L394.55 268.89L394.91 268.58L395.29 268.27L395.66 267.97L396.05 267.68L396.43 267.39L396.83 267.11L397.22 266.83L397.63 266.55L398.03 266.28L398.45 266.02L398.86 265.76L399.29 265.5L399.71 265.25L400.14 265.01L400.58 264.77L401.01 264.54L401.46 264.31L401.9 264.1L402.35 263.89L402.81 263.68L403.27 263.48L403.73 263.29L404.2 263.11L404.67 262.93L405.15 262.76L405.63 262.59L406.11 262.43L406.6 262.28L407.09 262.13L407.59 261.99L408.09 261.86L408.59 261.73L409.1 261.61L409.62 261.5L410.13 261.39L410.66 261.29L411.18 261.19L411.71 261.11L412.24 261.02L412.78 260.95L413.33 260.88L413.87 260.82L414.42 260.76L414.98 260.72L415.54 260.67L416.1 260.64L416.67 260.61L417.24 260.58L417.81 260.57L418.39 260.56L418.98 260.56L419.56 260.56L420.14 260.57ZM572.05 260.57L572.6 260.58L573.13 260.6L573.66 260.63L574.19 260.66L574.72 260.7L575.24 260.74L575.76 260.8L576.27 260.85L576.78 260.91L577.28 260.98L577.78 261.06L578.28 261.14L578.78 261.22L579.27 261.31L579.75 261.41L580.23 261.51L580.71 261.62L581.19 261.74L581.66 261.86L582.12 261.99L582.59 262.12L583.05 262.26L583.5 262.4L583.95 262.56L584.4 262.71L584.84 262.87L585.28 263.04L585.72 263.22L586.15 263.4L586.58 263.58L587 263.78L587.42 263.98L587.84 264.18L588.25 264.39L588.66 264.61L589.06 264.83L589.46 265.06L589.86 265.29L590.25 265.53L590.63 265.77L591.02 266.01L591.39 266.27L591.76 266.52L592.13 266.79L592.49 267.05L592.85 267.32L593.21 267.6L593.55 267.88L593.9 268.17L594.24 268.46L594.57 268.76L594.9 269.06L595.22 269.37L595.54 269.68L595.86 270L596.17 270.32L596.48 270.65L596.78 270.98L597.07 271.31L597.36 271.66L597.65 272L597.93 272.36L598.21 272.71L598.48 273.07L598.75 273.44L599.01 273.81L599.27 274.19L599.52 274.57L599.77 274.96L600.02 275.35L600.26 275.75L600.49 276.15L600.72 276.56L600.94 276.97L601.16 277.39L601.38 277.81L601.59 278.24L601.8 278.67L602 279.11L602.19 279.54L602.38 279.99L602.56 280.43L602.74 280.88L602.92 281.34L603.09 281.8L603.25 282.26L603.41 282.73L603.57 283.2L603.72 283.67L603.86 284.15L604 284.63L604.13 285.12L604.26 285.61L604.39 286.1L604.51 286.6L604.62 287.1L604.73 287.6L604.83 288.11L604.93 288.63L605.03 289.14L605.12 289.67L605.2 290.19L605.28 290.72L605.35 291.25L605.42 291.79L605.49 292.33L605.54 292.87L605.6 293.42L605.65 293.98L605.69 294.53L605.73 295.09L605.76 295.66L605.79 296.22L605.81 296.8L605.83 297.37L605.84 297.95L605.85 298.54L605.85 299.12L605.85 308.82L556.88 308.82L556.94 309.17L557.01 309.51L557.08 309.85L557.16 310.19L557.24 310.52L557.32 310.85L557.41 311.17L557.51 311.49L557.6 311.81L557.71 312.12L557.81 312.43L557.92 312.74L558.04 313.04L558.16 313.34L558.28 313.63L558.41 313.92L558.54 314.21L558.68 314.49L558.82 314.77L558.97 315.05L559.12 315.32L559.27 315.59L559.43 315.86L559.59 316.12L559.76 316.38L559.93 316.63L560.11 316.88L560.29 317.13L560.47 317.37L560.66 317.61L560.85 317.85L561.05 318.08L561.25 318.31L561.46 318.54L561.67 318.76L561.89 318.97L562.11 319.19L562.33 319.4L562.56 319.61L562.79 319.81L563.03 320.01L563.27 320.2L563.51 320.39L563.76 320.58L564.01 320.75L564.26 320.93L564.52 321.1L564.77 321.26L565.04 321.42L565.3 321.57L565.57 321.72L565.85 321.87L566.12 322L566.4 322.14L566.69 322.27L566.97 322.39L567.26 322.51L567.55 322.62L567.85 322.73L568.15 322.83L568.45 322.93L568.76 323.03L569.07 323.11L569.38 323.2L569.7 323.27L570.02 323.35L570.34 323.42L570.67 323.48L571 323.54L571.33 323.59L571.67 323.64L572.01 323.68L572.35 323.72L572.7 323.75L573.05 323.78L573.4 323.8L573.76 323.82L574.12 323.83L574.48 323.84L574.85 323.84L575.13 323.84L575.4 323.84L575.68 323.83L575.96 323.82L576.23 323.81L576.51 323.8L576.78 323.78L577.06 323.76L577.33 323.74L577.6 323.72L577.87 323.69L578.14 323.66L578.4 323.63L578.67 323.6L578.93 323.56L579.2 323.53L579.46 323.48L579.72 323.44L579.98 323.4L580.24 323.35L580.5 323.3L580.76 323.24L581.02 323.19L581.27 323.13L581.53 323.07L581.78 323L582.04 322.94L582.29 322.87L582.54 322.8L582.79 322.73L583.03 322.65L583.28 322.57L583.53 322.49L583.77 322.41L584.02 322.32L584.26 322.23L584.5 322.14L584.74 322.05L584.98 321.95L585.22 321.86L585.46 321.75L585.69 321.65L585.92 321.54L586.15 321.42L586.38 321.31L586.61 321.19L586.84 321.07L587.06 320.95L587.29 320.82L587.51 320.69L587.73 320.56L587.95 320.43L588.16 320.29L588.38 320.15L588.59 320.01L588.8 319.86L589.01 319.71L589.22 319.56L589.43 319.4L589.63 319.25L589.84 319.09L590.04 318.92L590.24 318.76L590.44 318.59L590.63 318.41L590.83 318.24L591.02 318.06L591.21 317.88L591.4 317.7L591.59 317.51L591.78 317.32L591.97 317.13L592.15 316.93L592.33 316.74L592.51 316.53L592.69 316.33L592.87 316.12L593.05 315.91L593.22 315.7L593.39 315.49L604 328.22L603.79 328.52L603.58 328.81L603.36 329.1L603.13 329.39L602.91 329.67L602.67 329.96L602.44 330.24L602.19 330.51L601.95 330.79L601.7 331.06L601.44 331.33L601.18 331.6L600.91 331.87L600.64 332.13L600.37 332.39L600.09 332.65L599.8 332.91L599.51 333.16L599.22 333.41L598.92 333.66L598.62 333.91L598.31 334.15L598 334.4L597.68 334.64L597.36 334.87L597.03 335.11L596.7 335.34L596.36 335.57L596.02 335.8L595.67 336.03L595.32 336.25L594.96 336.47L594.6 336.69L594.24 336.91L593.87 337.12L593.49 337.33L593.11 337.54L592.73 337.75L592.34 337.96L591.94 338.16L591.54 338.36L591.14 338.55L590.74 338.74L590.33 338.92L589.91 339.1L589.5 339.28L589.08 339.45L588.66 339.61L588.23 339.77L587.8 339.92L587.37 340.07L586.93 340.22L586.5 340.35L586.05 340.49L585.61 340.62L585.16 340.74L584.71 340.86L584.25 340.97L583.79 341.08L583.33 341.18L582.87 341.28L582.4 341.37L581.93 341.46L581.45 341.55L580.97 341.62L580.49 341.7L580.01 341.77L579.52 341.83L579.03 341.89L578.53 341.94L578.03 341.99L577.53 342.03L577.03 342.07L576.52 342.1L576.01 342.13L575.49 342.15L574.97 342.17L574.45 342.18L573.93 342.19L573.4 342.19L572.8 342.19L572.2 342.18L571.61 342.16L571.02 342.14L570.43 342.11L569.85 342.08L569.27 342.03L568.7 341.99L568.13 341.93L567.56 341.87L567 341.8L566.44 341.73L565.89 341.65L565.34 341.56L564.79 341.47L564.25 341.37L563.71 341.26L563.18 341.15L562.65 341.03L562.12 340.91L561.6 340.78L561.08 340.64L560.56 340.49L560.05 340.34L559.55 340.18L559.04 340.02L558.54 339.85L558.05 339.67L557.56 339.49L557.07 339.3L556.59 339.1L556.11 338.9L555.63 338.69L555.16 338.48L554.69 338.26L554.23 338.03L553.77 337.79L553.32 337.55L552.86 337.3L552.42 337.05L551.97 336.79L551.53 336.53L551.1 336.26L550.67 335.99L550.25 335.71L549.83 335.43L549.42 335.14L549.01 334.85L548.61 334.56L548.21 334.26L547.82 333.96L547.43 333.65L547.05 333.34L546.67 333.02L546.3 332.7L545.93 332.37L545.57 332.04L545.21 331.71L544.86 331.37L544.52 331.02L544.18 330.67L543.84 330.32L543.51 329.96L543.18 329.6L542.86 329.23L542.55 328.86L542.24 328.49L541.93 328.11L541.64 327.72L541.34 327.34L541.05 326.94L540.77 326.54L540.49 326.14L540.21 325.73L539.95 325.32L539.68 324.91L539.42 324.49L539.17 324.06L538.92 323.63L538.68 323.2L538.45 322.76L538.22 322.32L537.99 321.88L537.78 321.44L537.57 321L537.36 320.55L537.16 320.1L536.97 319.65L536.78 319.19L536.6 318.73L536.42 318.28L536.26 317.81L536.09 317.35L535.93 316.88L535.78 316.42L535.64 315.95L535.5 315.47L535.36 315L535.24 314.52L535.12 314.04L535 313.56L534.89 313.08L534.79 312.59L534.69 312.1L534.6 311.61L534.51 311.12L534.43 310.62L534.36 310.12L534.29 309.62L534.23 309.12L534.17 308.62L534.12 308.11L534.07 307.6L534.04 307.09L534 306.58L533.98 306.06L533.96 305.54L533.94 305.02L533.93 304.5L533.93 303.97L533.93 301.23L533.93 300.64L533.94 300.07L533.95 299.49L533.97 298.92L534 298.35L534.03 297.78L534.06 297.22L534.1 296.66L534.15 296.1L534.2 295.54L534.26 294.99L534.32 294.44L534.39 293.9L534.47 293.36L534.55 292.82L534.63 292.28L534.72 291.75L534.82 291.22L534.92 290.69L535.03 290.17L535.14 289.65L535.26 289.13L535.38 288.62L535.51 288.11L535.65 287.6L535.79 287.1L535.93 286.6L536.08 286.1L536.24 285.6L536.4 285.11L536.57 284.62L536.75 284.14L536.92 283.66L537.11 283.18L537.3 282.7L537.5 282.23L537.7 281.76L537.9 281.29L538.12 280.83L538.33 280.37L538.56 279.91L538.78 279.45L539.01 279L539.25 278.56L539.49 278.12L539.74 277.69L539.99 277.26L540.25 276.83L540.51 276.41L540.78 276L541.05 275.59L541.33 275.19L541.61 274.79L541.9 274.39L542.19 274L542.48 273.62L542.79 273.24L543.09 272.86L543.4 272.49L543.72 272.13L544.04 271.77L544.37 271.41L544.7 271.06L545.04 270.72L545.38 270.38L545.72 270.04L546.07 269.71L546.43 269.39L546.79 269.07L547.16 268.75L547.53 268.44L547.9 268.14L548.28 267.84L548.67 267.54L549.06 267.25L549.45 266.96L549.85 266.68L550.26 266.41L550.67 266.14L551.08 265.87L551.5 265.61L551.93 265.36L552.35 265.11L552.78 264.87L553.22 264.63L553.66 264.4L554.1 264.18L554.55 263.96L555 263.75L555.46 263.55L555.91 263.35L556.38 263.17L556.84 262.98L557.32 262.81L557.79 262.64L558.27 262.47L558.75 262.32L559.24 262.17L559.73 262.03L560.22 261.89L560.72 261.76L561.23 261.64L561.73 261.52L562.24 261.41L562.76 261.31L563.28 261.21L563.8 261.12L564.33 261.04L564.86 260.96L565.39 260.89L565.93 260.83L566.48 260.77L567.02 260.72L567.57 260.68L568.13 260.64L568.69 260.61L569.25 260.59L569.82 260.57L570.39 260.56L570.96 260.56L571.51 260.56L572.05 260.57ZM624.16 317.62L624.64 317.65L625.1 317.7L625.56 317.76L626.02 317.84L626.46 317.93L626.9 318.04L627.33 318.16L627.75 318.29L628.16 318.44L628.57 318.6L628.97 318.77L629.36 318.96L629.74 319.17L630.12 319.38L630.49 319.61L630.85 319.85L631.19 320.09L631.52 320.35L631.85 320.62L632.15 320.9L632.45 321.18L632.74 321.48L633.01 321.79L633.28 322.11L633.53 322.44L633.76 322.78L633.99 323.13L634.21 323.49L634.41 323.85L634.59 324.22L634.77 324.6L634.93 324.98L635.07 325.37L635.21 325.77L635.32 326.17L635.43 326.58L635.52 326.99L635.6 327.42L635.66 327.85L635.71 328.28L635.74 328.72L635.76 329.17L635.77 329.63L635.76 330.07L635.74 330.51L635.71 330.94L635.66 331.36L635.6 331.78L635.52 332.2L635.43 332.61L635.32 333.02L635.21 333.42L635.07 333.81L634.93 334.2L634.77 334.58L634.59 334.96L634.41 335.34L634.21 335.7L633.99 336.06L633.76 336.4L633.53 336.74L633.28 337.06L633.01 337.38L632.74 337.68L632.45 337.97L632.15 338.26L631.85 338.53L631.52 338.8L631.19 339.05L630.85 339.3L630.49 339.53L630.12 339.76L629.74 339.97L629.36 340.17L628.97 340.36L628.57 340.54L628.16 340.7L627.75 340.85L627.33 340.98L626.9 341.1L626.46 341.2L626.02 341.3L625.56 341.37L625.1 341.44L624.64 341.49L624.16 341.52L623.68 341.54L623.19 341.55L622.71 341.54L622.23 341.52L621.76 341.49L621.3 341.44L620.84 341.37L620.39 341.3L619.95 341.2L619.51 341.1L619.08 340.98L618.66 340.85L618.24 340.7L617.83 340.54L617.43 340.36L617.03 340.17L616.64 339.97L616.26 339.76L615.89 339.53L615.53 339.3L615.19 339.05L614.86 338.8L614.54 338.53L614.23 338.26L613.93 337.97L613.64 337.68L613.37 337.38L613.11 337.06L612.86 336.74L612.62 336.4L612.4 336.06L612.18 335.7L611.99 335.34L611.8 334.96L611.64 334.58L611.48 334.2L611.34 333.81L611.21 333.42L611.1 333.02L611 332.61L610.91 332.2L610.84 331.78L610.78 331.36L610.73 330.94L610.7 330.51L610.68 330.07L610.67 329.63L610.68 329.17L610.7 328.72L610.73 328.28L610.78 327.85L610.84 327.42L610.91 326.99L611 326.58L611.1 326.17L611.21 325.77L611.34 325.37L611.48 324.98L611.64 324.6L611.8 324.22L611.99 323.85L612.18 323.49L612.4 323.13L612.62 322.78L612.86 322.44L613.11 322.11L613.37 321.79L613.64 321.48L613.93 321.18L614.23 320.9L614.54 320.62L614.86 320.35L615.19 320.09L615.53 319.85L615.89 319.61L616.26 319.38L616.64 319.17L617.03 318.96L617.43 318.77L617.83 318.6L618.24 318.44L618.66 318.29L619.08 318.16L619.51 318.04L619.95 317.93L620.39 317.84L620.84 317.76L621.3 317.7L621.76 317.65L622.23 317.62L622.71 317.6L623.19 317.59L623.68 317.6L624.16 317.62ZM58.94 254.59L58.94 341.42L35.53 341.42L35.53 254.59L4.23 254.59L4.23 235.54L90.76 235.54L90.76 254.59L58.94 254.59ZM142.74 340.73L142.74 229L165.35 229L165.35 340.73L142.74 340.73ZM495.23 278.92L494.85 278.93L494.48 278.95L494.11 278.98L493.75 279.01L493.4 279.05L493.05 279.1L492.7 279.15L492.37 279.21L492.03 279.27L491.71 279.34L491.39 279.42L491.07 279.5L490.76 279.59L490.46 279.68L490.16 279.78L489.87 279.89L489.58 280L489.3 280.12L489.02 280.25L488.75 280.38L488.49 280.51L488.23 280.66L487.98 280.8L487.73 280.95L487.48 281.11L487.24 281.27L487.01 281.44L486.77 281.62L486.55 281.8L486.33 281.98L486.11 282.17L485.9 282.37L485.69 282.57L485.49 282.78L485.29 283L485.1 283.22L484.91 283.44L484.73 283.68L484.55 283.91L484.37 284.16L484.2 284.41L484.04 284.66L483.88 284.92L483.72 285.19L483.57 285.46L483.42 285.74L483.42 316.71L483.73 317.3L484.06 317.85L484.4 318.39L484.77 318.89L485.15 319.38L485.56 319.84L485.98 320.27L486.43 320.68L486.89 321.06L487.37 321.42L487.87 321.75L488.39 322.06L488.93 322.35L489.48 322.61L490.06 322.84L490.66 323.05L491.27 323.24L491.91 323.4L492.56 323.53L493.23 323.64L493.92 323.73L494.63 323.79L495.36 323.83L496.11 323.84L496.7 323.83L497.27 323.8L497.83 323.75L498.38 323.68L498.91 323.58L499.43 323.47L499.94 323.33L500.43 323.18L500.9 323L501.37 322.81L501.82 322.59L502.26 322.35L502.68 322.09L503.09 321.81L503.48 321.51L503.86 321.19L504.23 320.85L504.59 320.49L504.93 320.11L505.26 319.7L505.57 319.28L505.87 318.83L506.16 318.37L506.43 317.88L506.69 317.37L506.94 316.85L507.17 316.32L507.4 315.77L507.62 315.21L507.82 314.64L508.01 314.05L508.2 313.45L508.37 312.83L508.53 312.2L508.68 311.56L508.82 310.9L508.94 310.23L509.06 309.55L509.17 308.86L509.26 308.15L509.34 307.42L509.42 306.69L509.48 305.94L509.53 305.17L509.57 304.4L509.6 303.61L509.61 302.8L509.62 301.99L509.62 300.41L509.61 299.59L509.59 298.78L509.57 297.99L509.53 297.21L509.47 296.45L509.41 295.7L509.34 294.97L509.25 294.25L509.15 293.54L509.04 292.85L508.92 292.18L508.79 291.51L508.65 290.87L508.49 290.23L508.33 289.61L508.15 289.01L507.96 288.42L507.76 287.84L507.55 287.28L507.32 286.73L507.09 286.2L506.84 285.68L506.58 285.18L506.31 284.69L506.04 284.22L505.74 283.77L505.44 283.33L505.12 282.92L504.79 282.53L504.45 282.16L504.09 281.81L503.72 281.48L503.34 281.16L502.94 280.87L502.53 280.6L502.11 280.35L501.67 280.12L501.22 279.91L500.76 279.72L500.28 279.55L499.79 279.4L499.29 279.27L498.77 279.16L498.25 279.07L497.7 278.99L497.15 278.94L496.58 278.91L496 278.9L495.61 278.91L495.23 278.92ZM417.72 278.95L417.11 279L416.52 279.07L415.94 279.17L415.38 279.28L414.83 279.42L414.3 279.58L413.78 279.75L413.27 279.95L412.78 280.17L412.31 280.41L411.84 280.67L411.4 280.96L410.97 281.26L410.55 281.58L410.14 281.93L409.76 282.29L409.38 282.68L409.02 283.09L408.68 283.52L408.35 283.96L408.03 284.43L407.73 284.92L407.45 285.43L407.18 285.94L406.92 286.47L406.67 287.02L406.43 287.57L406.21 288.14L406 288.72L405.8 289.32L405.61 289.93L405.44 290.55L405.28 291.19L405.12 291.84L404.99 292.5L404.86 293.17L404.74 293.86L404.64 294.56L404.55 295.28L404.47 296L404.41 296.74L404.35 297.5L404.31 298.26L404.28 299.04L404.26 299.84L404.25 300.64L404.25 302.16L404.26 302.99L404.28 303.8L404.31 304.6L404.35 305.38L404.41 306.15L404.47 306.9L404.55 307.64L404.64 308.37L404.74 309.08L404.86 309.77L404.99 310.45L405.12 311.12L405.28 311.77L405.44 312.41L405.61 313.04L405.8 313.65L406 314.24L406.21 314.82L406.43 315.39L406.67 315.94L406.92 316.48L407.18 317L407.45 317.51L407.73 318L408.03 318.48L408.35 318.93L408.68 319.37L409.03 319.79L409.39 320.18L409.76 320.56L410.16 320.91L410.56 321.25L410.98 321.56L411.42 321.86L411.87 322.13L412.34 322.38L412.82 322.62L413.31 322.83L413.82 323.02L414.35 323.19L414.89 323.35L415.45 323.48L416.02 323.59L416.6 323.68L417.2 323.75L417.82 323.8L418.45 323.83L419.09 323.84L419.73 323.83L420.36 323.8L420.96 323.75L421.56 323.68L422.14 323.59L422.7 323.48L423.26 323.35L423.79 323.19L424.31 323.02L424.82 322.83L425.31 322.62L425.78 322.38L426.25 322.13L426.69 321.86L427.12 321.56L427.54 321.25L427.94 320.91L428.33 320.56L428.7 320.18L429.06 319.79L429.4 319.37L429.73 318.93L430.04 318.48L430.34 318L430.62 317.5L430.89 316.99L431.15 316.46L431.4 315.92L431.63 315.37L431.86 314.8L432.07 314.22L432.27 313.62L432.45 313.01L432.63 312.38L432.79 311.75L432.94 311.09L433.08 310.43L433.21 309.75L433.32 309.05L433.43 308.34L433.52 307.62L433.6 306.88L433.66 306.13L433.72 305.37L433.76 304.59L433.79 303.79L433.81 302.98L433.81 302.16L433.81 300.64L433.81 299.84L433.79 299.04L433.76 298.26L433.72 297.5L433.66 296.74L433.6 296L433.52 295.28L433.43 294.56L433.32 293.86L433.21 293.17L433.08 292.5L432.94 291.84L432.79 291.19L432.63 290.55L432.45 289.93L432.27 289.32L432.07 288.72L431.86 288.14L431.63 287.57L431.4 287.02L431.15 286.47L430.89 285.94L430.62 285.43L430.34 284.92L430.04 284.43L429.72 283.96L429.4 283.52L429.05 283.09L428.69 282.68L428.32 282.29L427.93 281.93L427.53 281.58L427.11 281.26L426.67 280.96L426.22 280.67L425.75 280.41L425.27 280.17L424.78 279.95L424.26 279.75L423.74 279.58L423.19 279.42L422.64 279.28L422.07 279.17L421.48 279.07L420.87 279L420.26 278.95L419.62 278.92L418.98 278.9L418.34 278.92L417.72 278.95ZM205.19 279.21L203.78 279.59L202.46 280.12L201.24 280.8L200.11 281.63L199.08 282.62L198.13 283.75L197.28 285.04L196.53 286.48L195.86 288.07L195.29 289.81L194.81 291.7L194.43 293.75L221.26 293.75L221.26 291.94L221.24 291.07L221.19 290.24L221.11 289.43L220.99 288.65L220.84 287.9L220.65 287.17L220.44 286.48L220.18 285.81L219.9 285.16L219.58 284.55L219.22 283.96L218.83 283.4L218.41 282.86L217.96 282.35L217.48 281.88L216.96 281.44L216.42 281.03L215.84 280.67L215.23 280.33L214.59 280.03L213.91 279.77L213.2 279.54L212.47 279.35L211.69 279.19L210.89 279.06L210.05 278.98L209.18 278.92L208.28 278.9L206.69 278.98L205.19 279.21ZM99.94 279.21L98.53 279.59L97.22 280.12L95.99 280.8L94.87 281.63L93.83 282.62L92.89 283.75L92.04 285.04L91.28 286.48L90.61 288.07L90.04 289.81L89.57 291.7L89.18 293.75L116.01 293.75L116.01 291.94L116 291.07L115.95 290.24L115.86 289.43L115.74 288.65L115.59 287.9L115.41 287.17L115.19 286.48L114.94 285.81L114.65 285.16L114.33 284.55L113.97 283.96L113.59 283.4L113.17 282.86L112.71 282.35L112.23 281.88L111.72 281.44L111.17 281.03L110.59 280.67L109.98 280.33L109.34 280.03L108.66 279.77L107.96 279.54L107.22 279.35L106.45 279.19L105.64 279.06L104.8 278.98L103.93 278.92L103.03 278.9L101.44 278.98L99.94 279.21ZM567.7 279.21L566.29 279.59L564.97 280.12L563.75 280.8L562.62 281.63L561.59 282.62L560.64 283.75L559.79 285.04L559.04 286.48L558.37 288.07L557.8 289.81L557.32 291.7L556.94 293.75L583.77 293.75L583.77 291.94L583.75 291.07L583.7 290.24L583.62 289.43L583.5 288.65L583.35 287.9L583.16 287.17L582.95 286.48L582.69 285.81L582.41 285.16L582.09 284.55L581.73 283.96L581.34 283.4L580.92 282.86L580.47 282.35L579.99 281.88L579.47 281.44L578.93 281.03L578.35 280.67L577.74 280.33L577.1 280.03L576.42 279.77L575.71 279.54L574.98 279.35L574.2 279.19L573.4 279.06L572.56 278.98L571.69 278.92L570.79 278.9L569.2 278.98L567.7 279.21Z" id="ama5Yfo47"></path></defs><g><g><g><use xlink:href="#ama5Yfo47" opacity="1" fill="#ffffff" fill-opacity="1"></use><g><use xlink:href="#ama5Yfo47" opacity="1" fill-opacity="0" stroke="#000000" stroke-width="1" stroke-opacity="0"></use></g></g></g></g></svg>