<?xml version="1.0" encoding="iso-8859-1"?>
<!-- Generator: Adobe Illustrator 19.0.0, SVG Export Plug-In . SVG Version: 6.00 Build 0)  -->
<svg version="1.1" id="Capa_1" xmlns="http://www.w3.org/2000/svg" xmlns:xlink="http://www.w3.org/1999/xlink" x="0px" y="0px"
	 viewBox="0 0 511.992 511.992" style="enable-background:new 0 0 511.992 511.992;" xml:space="preserve">
<g>
	<g>
		<path d="M511.577,72.384c-1.007-3.081-3.669-5.333-6.886-5.803l-30.566-4.446l-13.679-27.699c-2.867-5.837-12.433-5.837-15.3,0
			l-13.679,27.699L400.9,66.582c-3.217,0.469-5.879,2.714-6.895,5.803c-0.998,3.089-0.171,6.485,2.159,8.747l22.127,21.564
			l-5.222,30.447c-0.546,3.2,0.768,6.434,3.388,8.346c2.654,1.929,6.118,2.167,8.994,0.648l27.341-14.379l27.341,14.379
			c1.246,0.657,2.62,0.981,3.977,0.981c1.766,0,3.533-0.546,5.018-1.63c2.628-1.911,3.942-5.146,3.388-8.346l-5.222-30.447
			l22.127-21.564C511.739,78.861,512.576,75.473,511.577,72.384z M472.171,93.615c-2.005,1.954-2.927,4.787-2.449,7.552
			l3.055,17.826l-16.008-8.414c-1.246-0.657-2.611-0.981-3.977-0.981c-1.365,0-2.722,0.324-3.977,0.981l-16.009,8.414l3.055-17.826
			c0.478-2.765-0.444-5.589-2.449-7.552L420.45,80.986l17.903-2.603c2.782-0.401,5.18-2.15,6.426-4.668l8.004-16.213l8.004,16.213
			c1.246,2.517,3.644,4.267,6.426,4.668l17.903,2.603L472.171,93.615z"/>
	</g>
</g>
<g>
	<g>
		<rect x="401.062" y="328.35" width="17.067" height="17.067"/>
	</g>
</g>
<g>
	<g>
		<rect x="401.062" y="362.484" width="17.067" height="17.067"/>
	</g>
</g>
<g>
	<g>
		<rect x="418.129" y="345.417" width="17.067" height="17.067"/>
	</g>
</g>
<g>
	<g>
		<rect x="383.996" y="345.417" width="17.067" height="17.067"/>
	</g>
</g>
<g>
	<g>
		<rect x="341.329" y="422.217" width="17.067" height="17.067"/>
	</g>
</g>
<g>
	<g>
		<rect x="341.329" y="456.35" width="17.067" height="17.067"/>
	</g>
</g>
<g>
	<g>
		<rect x="358.396" y="439.284" width="17.067" height="17.067"/>
	</g>
</g>
<g>
	<g>
		<rect x="324.262" y="439.284" width="17.067" height="17.067"/>
	</g>
</g>
<g>
	<g>
		<rect x="238.929" y="388.084" width="17.067" height="17.067"/>
	</g>
</g>
<g>
	<g>
		<rect x="238.929" y="422.217" width="17.067" height="17.067"/>
	</g>
</g>
<g>
	<g>
		<rect x="255.996" y="405.15" width="17.067" height="17.067"/>
	</g>
</g>
<g>
	<g>
		<rect x="221.862" y="405.15" width="17.067" height="17.067"/>
	</g>
</g>
<g>
	<g>
		<rect x="76.796" y="97.95" width="17.067" height="17.067"/>
	</g>
</g>
<g>
	<g>
		<rect x="76.796" y="132.084" width="17.067" height="17.067"/>
	</g>
</g>
<g>
	<g>
		<rect x="93.862" y="115.017" width="17.067" height="17.067"/>
	</g>
</g>
<g>
	<g>
		<rect x="59.729" y="115.017" width="17.067" height="17.067"/>
	</g>
</g>
<g>
	<g>
		<path d="M395.43,226.548c-4.599-6.204-11.349-10.197-19.012-11.273c-7.697-1.092-15.292,0.93-21.436,5.632l-20.028,15.351
			l-0.009,0.009l-30.362,22.673l-21.726-8.653c38.741-17.382,65.818-56.132,65.818-101.12c0-61.167-49.963-110.933-111.377-110.933
			S125.922,88,125.922,149.167c0,22.17,6.63,42.786,17.92,60.134l-44.22-0.384c-0.026,0-0.051,0-0.077,0
			c-0.137,0-0.247,0.068-0.375,0.077c-0.845,0.034-1.673,0.205-2.483,0.495c-0.205,0.077-0.418,0.12-0.614,0.213
			c-0.102,0.043-0.205,0.051-0.307,0.102l-51.729,25.54c-0.009,0-0.017,0-0.017,0.008L13.726,249.92
			c-0.333,0.145-0.674,0.341-1.007,0.563c-12.075,8.038-16.188,23.825-9.574,36.727c3.524,6.861,9.523,11.913,16.896,14.225
			c2.842,0.887,5.743,1.323,8.627,1.323c4.634,0,9.225-1.135,13.431-3.379l22.204-11.81l36.224-18.705l21.709-0.128L35.17,355.384
			c-0.008,0.009-0.017,0.009-0.026,0.017l-21.419,21.333c-5.06,5.035-7.842,11.716-7.842,18.842c0,7.117,2.782,13.815,7.842,18.859
			c5.197,5.171,12.032,7.765,18.867,7.765c6.844,0,13.67-2.594,18.884-7.765l21.026-20.941l27.853-20.796l14.413,14.353
			l-28.186,28.066c-0.008,0.009-0.017,0.009-0.026,0.017l-21.419,21.333c-5.06,5.035-7.842,11.716-7.842,18.842
			c0,7.117,2.782,13.815,7.842,18.859c5.197,5.171,12.041,7.765,18.876,7.765c6.835,0,13.679-2.594,18.884-7.765l21.427-21.333
			l34.278-34.133c0.009-0.009,0.009-0.017,0.017-0.026l16.154-16l-0.06-0.06c0.102-0.102,0.247-0.137,0.35-0.247l82.654-90.53
			l55.535,7.902c0.401,0.06,0.802,0.085,1.203,0.085c1.033,0,2.031-0.247,2.995-0.614c0.282-0.102,0.529-0.239,0.794-0.375
			c0.307-0.154,0.631-0.239,0.922-0.435l51.413-34.133c0.188-0.128,0.29-0.333,0.469-0.469c0.205-0.162,0.461-0.23,0.648-0.41
			l20.343-19.055C402.624,254.417,404.083,238.17,395.43,226.548z M34.086,284.318c-2.773,1.485-5.922,1.783-8.934,0.828
			c-2.987-0.93-5.41-2.97-6.827-5.726c-2.577-5.018-1.084-11.128,3.43-14.43l21.018-10.112l5.06,14.788l2.125,6.212L34.086,284.318z
			 M90.039,255.075l-24.772,12.8l-4.087-11.947l-2.935-8.585l32.427-16.009L90.039,255.075z M331.626,149.15
			c0,14.694-3.507,28.553-9.583,40.951l-66.901-30.387c-0.7-9.173-5.461-17.203-12.612-22.204l23.424-77.764
			C303.996,71.847,331.626,107.337,331.626,149.15z M143.006,149.15c0-51.755,42.308-93.867,94.31-93.867
			c4.045,0,8.004,0.341,11.921,0.836l-22.912,76.058c-0.307-0.009-0.597-0.094-0.913-0.094c-16.521,0-29.961,13.397-29.961,29.867
			c0,16.469,13.44,29.867,29.961,29.867c11.11,0,20.71-6.135,25.89-15.113l61.798,28.075
			c-17.195,23.142-44.715,38.238-75.785,38.238C185.314,243.017,143.006,200.905,143.006,149.15z M238.306,161.95
			c0,7.057-5.786,12.8-12.894,12.8s-12.894-5.743-12.894-12.8c0-7.057,5.786-12.8,12.894-12.8S238.306,154.893,238.306,161.95z
			 M39.437,402.334c-3.78,3.746-9.899,3.738-13.67,0.009c-1.818-1.818-2.816-4.215-2.816-6.767c0-2.543,0.998-4.941,2.816-6.741
			L41.16,373.5l13.619,13.56L39.437,402.334z M90.858,462.068c-3.78,3.746-9.907,3.755-13.679,0.009
			c-1.818-1.818-2.816-4.215-2.816-6.767c0-2.543,0.998-4.941,2.816-6.741l15.403-15.343l6.443,6.409l7.185,7.151L90.858,462.068z
			 M146.564,406.567c-0.009,0.008-0.017,0.008-0.026,0.017l-28.237,28.16l-6.443-6.409l-7.185-7.151l28.211-28.083c0,0,0,0,0-0.008
			c0.009-0.009,0.017-0.009,0.026-0.017c0.64-0.64,1.041-1.408,1.434-2.167c0.111-0.222,0.324-0.41,0.418-0.64
			c0.265-0.657,0.307-1.365,0.41-2.057c0.051-0.393,0.222-0.759,0.222-1.161c0-0.572-0.205-1.126-0.324-1.69
			c-0.102-0.512-0.102-1.033-0.299-1.527c-0.324-0.802-0.879-1.51-1.459-2.202c-0.162-0.188-0.222-0.427-0.401-0.606
			c0,0,0,0-0.009,0c-0.009-0.008-0.009-0.026-0.017-0.034l-25.711-25.6c-0.273-0.273-0.623-0.384-0.93-0.614
			c-0.452-0.35-0.887-0.674-1.391-0.922c-0.486-0.239-0.981-0.384-1.493-0.521c-0.546-0.154-1.075-0.273-1.647-0.316
			c-0.521-0.034-1.007,0.017-1.527,0.077c-0.572,0.068-1.109,0.145-1.664,0.324c-0.538,0.171-1.015,0.435-1.51,0.717
			c-0.316,0.179-0.674,0.239-0.973,0.461l-28.373,21.18l-14.413-14.353l38.383-38.178l69.769,68.617L146.564,406.567z
			 M255.663,294.302c-0.247-0.034-0.478,0.06-0.725,0.043c-0.623-0.034-1.22,0.009-1.843,0.111
			c-0.486,0.085-0.947,0.179-1.408,0.341c-0.546,0.188-1.041,0.444-1.545,0.751c-0.478,0.29-0.913,0.597-1.331,0.981
			c-0.205,0.179-0.452,0.265-0.64,0.469L173,379.328l-69.248-68.105l45.329-45.09c3.337-3.328,3.354-8.73,0.026-12.075
			c-1.681-1.681-3.891-2.509-6.101-2.5v-0.008l-35.499,0.213l0.444-25.719l49.664,0.427c20.241,20.702,48.469,33.613,79.701,33.613
			c6.997,0,13.824-0.725,20.471-1.963c0.64,0.512,1.271,1.033,2.074,1.357l38.554,15.36l2.44,12.134l2.85,14.165L255.663,294.302z
			 M320.32,297.152l-5.009-24.926l23.142-17.28l6.059,8.038l9.088,12.066L320.32,297.152z M380.377,251.857l-13.406,12.561
			l-14.899-19.78l13.303-10.197c2.483-1.911,5.615-2.688,8.687-2.287c3.089,0.435,5.82,2.048,7.68,4.548
			C385.207,241.37,384.618,247.881,380.377,251.857z"/>
	</g>
</g>
<g>
	<g>
		<path d="M217.63,296.7l-34.287-34.133c-3.319-3.319-8.713-3.319-12.041,0L137.024,296.7c-1.604,1.613-2.509,3.78-2.509,6.05
			c0,2.27,0.896,4.446,2.509,6.05l34.278,34.133c1.664,1.655,3.849,2.483,6.025,2.483c2.176,0,4.36-0.828,6.016-2.483L217.63,308.8
			c1.604-1.604,2.517-3.78,2.517-6.05S219.242,298.304,217.63,296.7z M177.327,324.843L155.14,302.75l22.187-22.093l22.195,22.093
			L177.327,324.843z"/>
	</g>
</g>
<g>
	<g>
		<path d="M274.624,81.131l-4.122,16.572c1.135,0.282,27.802,7.228,27.802,34.381h17.067
			C315.37,99.81,288.721,84.638,274.624,81.131z"/>
	</g>
</g>
<g>
	<g>
		<rect x="298.304" y="149.15" width="17.067" height="17.067"/>
	</g>
</g>
<g>
</g>
<g>
</g>
<g>
</g>
<g>
</g>
<g>
</g>
<g>
</g>
<g>
</g>
<g>
</g>
<g>
</g>
<g>
</g>
<g>
</g>
<g>
</g>
<g>
</g>
<g>
</g>
<g>
</g>
</svg>
