<svg version="1.1" id="Layer_1" xmlns="http://www.w3.org/2000/svg" xmlns:xlink="http://www.w3.org/1999/xlink" x="0px" y="0px"
	 width="100%" viewBox="0 0 630 149" enable-background="new 0 0 630 149" xml:space="preserve">
<path fill="#020202" opacity="1.000000" stroke="none" 
	d="
M426.000000,150.000000 
	C284.000000,150.000000 142.500000,150.000000 1.000000,150.000000 
	C1.000000,100.333336 1.000000,50.666668 1.000000,1.000000 
	C211.000000,1.000000 421.000000,1.000000 631.000000,1.000000 
	C631.000000,50.666668 631.000000,100.333336 631.000000,150.000000 
	C562.833313,150.000000 494.666656,150.000000 426.000000,150.000000 
M137.997513,131.566589 
	C139.420837,125.932701 140.700760,120.255791 142.368607,114.695244 
	C142.784058,113.310097 144.431168,111.296089 145.547470,111.272934 
	C157.512711,111.024773 169.485016,111.118492 181.677750,111.118492 
	C184.311188,121.339157 186.855560,131.214188 189.347076,140.884048 
	C200.480286,140.884048 211.080795,140.884048 222.038879,140.884048 
	C208.517670,97.508278 195.093994,54.445427 181.675522,11.399284 
	C169.049225,11.399284 156.754471,11.399284 144.342484,11.399284 
	C130.862076,54.599682 117.428383,97.650375 103.910873,140.969666 
	C114.693810,140.969666 124.993744,140.969666 135.565445,140.969666 
	C136.346939,138.070465 137.112656,135.229813 137.997513,131.566589 
M414.835205,106.242599 
	C411.215454,117.727501 407.595673,129.212402 403.895447,140.952652 
	C414.767883,140.952652 425.066132,140.952652 435.593872,140.952652 
	C438.177948,130.990646 440.738434,121.119576 443.333679,111.114563 
	C455.157227,111.114563 466.474762,111.242058 477.786072,111.032227 
	C480.934875,110.973824 482.141144,112.108780 482.818695,114.990173 
	C484.859436,123.668823 487.123230,132.295013 489.253235,140.755829 
	C500.351440,140.755829 511.037140,140.755829 522.006531,140.755829 
	C508.457672,97.303528 495.036865,54.261951 481.658813,11.357408 
	C468.945557,11.357408 456.805817,11.357408 444.358612,11.357408 
	C434.564178,42.762138 424.787323,74.110527 414.835205,106.242599 
M518.927979,11.190817 
	C517.902771,11.363041 516.877563,11.535264 515.626892,11.745356 
	C516.250732,13.262701 516.647156,14.348238 517.133362,15.391967 
	C528.629639,40.069313 540.249207,64.690453 551.522644,89.469078 
	C553.305725,93.388268 554.228027,97.994759 554.351501,102.317680 
	C554.716614,115.096657 554.481995,127.892754 554.481995,140.875427 
	C564.982056,140.875427 575.045471,140.875427 585.518005,140.875427 
	C585.518005,127.010880 585.414185,113.385582 585.601562,99.764297 
	C585.641296,96.877419 586.244324,93.776642 587.438110,91.162743 
	C596.127197,72.137077 605.042358,53.214748 613.867371,34.251053 
	C617.340027,26.788918 620.764893,19.304573 624.413513,11.392254 
	C613.255920,11.392254 602.833496,11.392254 592.099365,11.392254 
	C584.908813,30.438841 577.688477,49.564404 570.018005,69.882248 
	C569.034180,67.310829 568.512390,65.997467 568.026855,64.670853 
	C561.982544,48.157673 555.878906,31.665619 549.963562,15.106313 
	C548.919678,12.184055 547.580017,10.993823 544.318604,11.101671 
	C536.169128,11.371161 528.004700,11.190558 518.927979,11.190817 
M265.645599,57.814133 
	C261.664490,46.902870 257.714417,35.980152 253.687363,25.085863 
	C252.020599,20.576803 251.388351,14.316528 248.106857,12.144826 
	C244.581665,9.811860 238.499054,11.274509 233.530701,11.208730 
	C227.668274,11.131112 221.804001,11.190520 215.438034,11.190520 
	C216.300583,13.326155 216.736115,14.563310 217.287598,15.746428 
	C227.529938,37.720448 237.508484,59.823978 248.169189,81.593376 
	C252.751907,90.951363 255.323395,100.257652 254.605576,110.734695 
	C254.003662,119.520187 254.467224,128.379730 254.498810,137.206360 
	C254.503265,138.451797 254.733932,139.696396 254.856018,140.902985 
	C265.194611,140.902985 275.137421,140.902985 285.518036,140.902985 
	C285.518036,127.232010 285.389313,113.771408 285.612183,100.316635 
	C285.665253,97.113129 286.349640,93.681763 287.670105,90.776230 
	C296.257263,71.880722 305.107666,53.104900 313.855499,34.282288 
	C317.326233,26.814457 320.755127,19.327194 324.407471,11.405352 
	C313.265869,11.405352 302.843323,11.405352 292.088715,11.405352 
	C284.910614,30.423807 277.689880,49.555180 269.952026,70.056633 
	C268.269562,65.289291 267.082428,61.925411 265.645599,57.814133 
M36.012062,142.703537 
	C43.443687,142.614517 51.089458,143.624466 58.265926,142.226028 
	C78.099640,138.361160 90.670647,122.011482 90.932289,100.224167 
	C91.278198,71.420219 91.117332,42.610142 91.156639,13.802675 
	C91.157692,13.029643 90.955788,12.256334 90.863800,11.593193 
	C80.454185,11.593193 70.409706,11.593193 60.159168,11.593193 
	C60.159168,38.460678 60.213947,64.930031 60.107449,91.398735 
	C60.088814,96.030594 59.821606,100.745789 58.914185,105.271095 
	C57.328007,113.181313 52.096130,116.920616 43.943417,117.061272 
	C35.717842,117.203194 30.454414,112.496750 25.996359,106.128265 
	C19.495218,110.595695 13.238856,114.894920 7.050677,119.147293 
	C11.758310,131.170212 21.885656,139.459030 36.012062,142.703537 
M391.172333,26.503967 
	C391.172333,21.555305 391.172333,16.606646 391.172333,11.514974 
	C380.627777,11.514974 370.583435,11.514974 360.159180,11.514974 
	C360.159180,13.631845 360.159149,15.431443 360.159149,17.231041 
	C360.159119,42.035061 360.202179,66.839226 360.116760,91.642952 
	C360.102539,95.779099 359.919281,99.988411 359.139465,104.033859 
	C357.089752,114.666687 348.621124,119.852318 338.413452,116.014557 
	C333.582611,114.198318 329.569427,110.207237 324.791229,106.930962 
	C319.348328,110.687881 313.099792,115.000900 306.921936,119.265152 
	C316.487000,140.389114 336.785675,146.817078 358.618408,142.243698 
	C378.017700,138.180008 390.561829,122.057159 390.918549,100.908371 
	C391.331207,76.445198 391.115356,51.971420 391.172333,26.503967 
z"/>
<path fill="#FDFDFD" opacity="1.000000" stroke="none" 
	d="
M137.937943,131.977875 
	C137.112656,135.229813 136.346939,138.070465 135.565445,140.969666 
	C124.993744,140.969666 114.693810,140.969666 103.910873,140.969666 
	C117.428383,97.650375 130.862076,54.599682 144.342484,11.399284 
	C156.754471,11.399284 169.049225,11.399284 181.675522,11.399284 
	C195.093994,54.445427 208.517670,97.508278 222.038879,140.884048 
	C211.080795,140.884048 200.480286,140.884048 189.347076,140.884048 
	C186.855560,131.214188 184.311188,121.339157 181.677750,111.118492 
	C169.485016,111.118492 157.512711,111.024773 145.547470,111.272934 
	C144.431168,111.296089 142.784058,113.310097 142.368607,114.695244 
	C140.700760,120.255791 139.420837,125.932701 137.937943,131.977875 
M162.972519,35.264984 
	C162.765594,35.125309 162.558685,34.985630 162.351761,34.845951 
	C162.103958,35.264393 161.735046,35.653561 161.625793,36.105492 
	C157.569885,52.883282 153.535416,69.666260 149.529205,86.455978 
	C149.474091,86.686935 149.815887,87.012604 149.946259,87.247009 
	C158.469070,87.247009 166.951218,87.247009 175.696518,87.247009 
	C171.423264,69.779892 167.287155,52.873386 162.972519,35.264984 
z"/>
<path fill="#FDFDFD" opacity="1.000000" stroke="none" 
	d="
M414.922852,105.850754 
	C424.787323,74.110527 434.564178,42.762138 444.358612,11.357408 
	C456.805817,11.357408 468.945557,11.357408 481.658813,11.357408 
	C495.036865,54.261951 508.457672,97.303528 522.006531,140.755829 
	C511.037140,140.755829 500.351440,140.755829 489.253235,140.755829 
	C487.123230,132.295013 484.859436,123.668823 482.818695,114.990173 
	C482.141144,112.108780 480.934875,110.973824 477.786072,111.032227 
	C466.474762,111.242058 455.157227,111.114563 443.333679,111.114563 
	C440.738434,121.119576 438.177948,130.990646 435.593872,140.952652 
	C425.066132,140.952652 414.767883,140.952652 403.895447,140.952652 
	C407.595673,129.212402 411.215454,117.727501 414.922852,105.850754 
M465.165222,44.263706 
	C464.385162,41.098965 463.605072,37.934223 462.825012,34.769478 
	C462.535736,34.808472 462.246460,34.847462 461.957184,34.886456 
	C457.762146,52.327572 453.567078,69.768684 449.326385,87.399620 
	C458.466095,87.399620 466.839661,87.399620 475.726715,87.399620 
	C472.200073,72.973701 468.787872,59.015903 465.165222,44.263706 
z"/>
<path fill="#FAFAFA" opacity="1.000000" stroke="none" 
	d="
M519.387146,11.190693 
	C528.004700,11.190558 536.169128,11.371161 544.318604,11.101671 
	C547.580017,10.993823 548.919678,12.184055 549.963562,15.106313 
	C555.878906,31.665619 561.982544,48.157673 568.026855,64.670853 
	C568.512390,65.997467 569.034180,67.310829 570.018005,69.882248 
	C577.688477,49.564404 584.908813,30.438841 592.099365,11.392254 
	C602.833496,11.392254 613.255920,11.392254 624.413513,11.392254 
	C620.764893,19.304573 617.340027,26.788918 613.867371,34.251053 
	C605.042358,53.214748 596.127197,72.137077 587.438110,91.162743 
	C586.244324,93.776642 585.641296,96.877419 585.601562,99.764297 
	C585.414185,113.385582 585.518005,127.010880 585.518005,140.875427 
	C575.045471,140.875427 564.982056,140.875427 554.481995,140.875427 
	C554.481995,127.892754 554.716614,115.096657 554.351501,102.317680 
	C554.228027,97.994759 553.305725,93.388268 551.522644,89.469078 
	C540.249207,64.690453 528.629639,40.069313 517.133362,15.391967 
	C516.647156,14.348238 516.250732,13.262701 515.626892,11.745356 
	C516.877563,11.535264 517.902771,11.363041 519.387146,11.190693 
z"/>
<path fill="#FAFAFA" opacity="1.000000" stroke="none" 
	d="
M265.770447,58.187832 
	C267.082428,61.925411 268.269562,65.289291 269.952026,70.056633 
	C277.689880,49.555180 284.910614,30.423807 292.088715,11.405352 
	C302.843323,11.405352 313.265869,11.405352 324.407471,11.405352 
	C320.755127,19.327194 317.326233,26.814457 313.855499,34.282288 
	C305.107666,53.104900 296.257263,71.880722 287.670105,90.776230 
	C286.349640,93.681763 285.665253,97.113129 285.612183,100.316635 
	C285.389313,113.771408 285.518036,127.232010 285.518036,140.902985 
	C275.137421,140.902985 265.194611,140.902985 254.856018,140.902985 
	C254.733932,139.696396 254.503265,138.451797 254.498810,137.206360 
	C254.467224,128.379730 254.003662,119.520187 254.605576,110.734695 
	C255.323395,100.257652 252.751907,90.951363 248.169189,81.593376 
	C237.508484,59.823978 227.529938,37.720448 217.287598,15.746428 
	C216.736115,14.563310 216.300583,13.326155 215.438034,11.190520 
	C221.804001,11.190520 227.668274,11.131112 233.530701,11.208730 
	C238.499054,11.274509 244.581665,9.811860 248.106857,12.144826 
	C251.388351,14.316528 252.020599,20.576803 253.687363,25.085863 
	C257.714417,35.980152 261.664490,46.902870 265.770447,58.187832 
z"/>
<path fill="#FCFCFC" opacity="1.000000" stroke="none" 
	d="
M35.611458,142.563202 
	C21.885656,139.459030 11.758310,131.170212 7.050677,119.147293 
	C13.238856,114.894920 19.495218,110.595695 25.996359,106.128265 
	C30.454414,112.496750 35.717842,117.203194 43.943417,117.061272 
	C52.096130,116.920616 57.328007,113.181313 58.914185,105.271095 
	C59.821606,100.745789 60.088814,96.030594 60.107449,91.398735 
	C60.213947,64.930031 60.159168,38.460678 60.159168,11.593193 
	C70.409706,11.593193 80.454185,11.593193 90.863800,11.593193 
	C90.955788,12.256334 91.157692,13.029643 91.156639,13.802675 
	C91.117332,42.610142 91.278198,71.420219 90.932289,100.224167 
	C90.670647,122.011482 78.099640,138.361160 58.265926,142.226028 
	C51.089458,143.624466 43.443687,142.614517 35.611458,142.563202 
z"/>
<path fill="#FCFCFC" opacity="1.000000" stroke="none" 
	d="
M391.172363,27.003107 
	C391.115356,51.971420 391.331207,76.445198 390.918549,100.908371 
	C390.561829,122.057159 378.017700,138.180008 358.618408,142.243698 
	C336.785675,146.817078 316.487000,140.389114 306.921936,119.265152 
	C313.099792,115.000900 319.348328,110.687881 324.791229,106.930962 
	C329.569427,110.207237 333.582611,114.198318 338.413452,116.014557 
	C348.621124,119.852318 357.089752,114.666687 359.139465,104.033859 
	C359.919281,99.988411 360.102539,95.779099 360.116760,91.642952 
	C360.202179,66.839226 360.159119,42.035061 360.159149,17.231041 
	C360.159149,15.431443 360.159180,13.631845 360.159180,11.514974 
	C370.583435,11.514974 380.627777,11.514974 391.172333,11.514974 
	C391.172333,16.606646 391.172333,21.555305 391.172363,27.003107 
z"/>
<path fill="#080808" opacity="1.000000" stroke="none" 
	d="
M163.061783,35.615932 
	C167.287155,52.873386 171.423264,69.779892 175.696518,87.247009 
	C166.951218,87.247009 158.469070,87.247009 149.946259,87.247009 
	C149.815887,87.012604 149.474091,86.686935 149.529205,86.455978 
	C153.535416,69.666260 157.569885,52.883282 161.625793,36.105492 
	C161.735046,35.653561 162.103958,35.264393 162.351761,34.845951 
	C162.558685,34.985630 162.765594,35.125309 163.061783,35.615932 
z"/>
<path fill="#080808" opacity="1.000000" stroke="none" 
	d="
M465.270447,44.660904 
	C468.787872,59.015903 472.200073,72.973701 475.726715,87.399620 
	C466.839661,87.399620 458.466095,87.399620 449.326385,87.399620 
	C453.567078,69.768684 457.762146,52.327572 461.957184,34.886456 
	C462.246460,34.847462 462.535736,34.808472 462.825012,34.769478 
	C463.605072,37.934223 464.385162,41.098965 465.270447,44.660904 
z"/>
</svg>